<?xml version="1.0" standalone="yes"?>

<svg version="1.1" viewBox="0.0 0.0 1069.0 694.0" fill="none" stroke="none" stroke-linecap="square" stroke-miterlimit="10" xmlns="http://www.w3.org/2000/svg" xmlns:xlink="http://www.w3.org/1999/xlink"><clipPath id="p.0"><path d="m0 0l1069.0 0l0 694.0l-1069.0 0l0 -694.0z" clip-rule="nonzero"></path></clipPath><g clip-path="url(#p.0)"><path fill="#000000" d="m-0.8897638 0l1070.0157 0l0 694.04724l-1070.0157 0z" fill-rule="nonzero"></path><path stroke="#000000" stroke-width="2.0" stroke-linejoin="round" stroke-linecap="butt" d="m-0.8897638 0l1070.0157 0l0 694.04724l-1070.0157 0z" fill-rule="nonzero"></path><path stroke="#ffffff" stroke-width="8.0" stroke-linejoin="round" stroke-linecap="butt" d="m587.1417 73.53018l0 612.063" fill-rule="nonzero"></path><path stroke="#ffffff" stroke-width="8.0" stroke-linejoin="round" stroke-linecap="butt" d="m980.6588 73.53018l0 612.9133" fill-rule="nonzero"></path><path stroke="#ffffff" stroke-width="8.0" stroke-linejoin="round" stroke-linecap="butt" d="m588.8819 96.16535l345.36353 59.725975" fill-rule="evenodd"></path><path fill="#ffffff" stroke="#ffffff" stroke-width="8.0" stroke-linecap="butt" d="m931.99365 168.91191l38.025513 -6.8339996l-33.522034 -19.207184z" fill-rule="evenodd"></path><path stroke="#ffffff" stroke-width="8.0" stroke-linejoin="round" stroke-linecap="butt" d="m588.8819 144.16536l345.36353 59.725967" fill-rule="evenodd"></path><path fill="#ffffff" stroke="#ffffff" stroke-width="8.0" stroke-linecap="butt" d="m931.99365 216.91191l38.025513 -6.8339996l-33.522034 -19.207184z" fill-rule="evenodd"></path><path stroke="#ffffff" stroke-width="8.0" stroke-linejoin="round" stroke-linecap="butt" d="m588.8819 196.4042l345.36353 59.725952" fill-rule="evenodd"></path><path fill="#ffffff" stroke="#ffffff" stroke-width="8.0" stroke-linecap="butt" d="m931.99365 269.15076l38.025513 -6.8339844l-33.522034 -19.2072z" fill-rule="evenodd"></path><path stroke="#ffffff" stroke-width="8.0" stroke-linejoin="round" stroke-linecap="butt" d="m980.6588 163.31758l0 0c37.02484 0 67.03931 30.014557 67.03931 67.03937c0 18.512436 -7.50354 35.272263 -19.635254 47.404007c-6.065918 6.065857 -13.288818 10.974701 -21.309326 14.367065c-2.005127 0.848114 -4.0600586 1.6014404 -6.1593018 2.2543335l-0.36523438 0.11114502" fill-rule="evenodd"></path><path fill="#ffffff" stroke="#ffffff" stroke-width="8.0" stroke-linecap="butt" d="m1000.229 294.4935l3.8997192 -5.2581177l-11.901306 6.444977l13.259705 2.71286z" fill-rule="evenodd"></path><path stroke="#ffffff" stroke-width="8.0" stroke-linejoin="round" stroke-linecap="butt" d="m980.6588 297.39633l0 0c37.02484 0 67.03931 30.014557 67.03931 67.03937c0 18.51239 -7.50354 35.272217 -19.635254 47.40399c-6.065918 6.065857 -13.288818 10.974701 -21.309326 14.367096c-2.005127 0.8480835 -4.0600586 1.6014099 -6.1593018 2.2543335l-0.36523438 0.111083984" fill-rule="evenodd"></path><path fill="#ffffff" stroke="#ffffff" stroke-width="8.0" stroke-linecap="butt" d="m1000.229 428.57224l3.8997192 -5.2581177l-11.901306 6.444977l13.259705 2.7128906z" fill-rule="evenodd"></path><path stroke="#ffffff" stroke-width="8.0" stroke-linejoin="round" stroke-linecap="butt" d="m980.6588 431.47507l0 0c37.02484 0 67.03931 30.014557 67.03931 67.03937c0 18.51236 -7.50354 35.272247 -19.635254 47.404022c-6.065918 6.065857 -13.288818 10.97467 -21.309326 14.367065c-2.005127 0.8480835 -4.0600586 1.6014404 -6.1593018 2.2543335l-0.36523438 0.111083984" fill-rule="evenodd"></path><path fill="#ffffff" stroke="#ffffff" stroke-width="8.0" stroke-linecap="butt" d="m1000.229 562.651l3.8997192 -5.2581177l-11.901306 6.4449463l13.259705 2.7128906z" fill-rule="evenodd"></path><path stroke="#ffffff" stroke-width="8.0" stroke-linejoin="round" stroke-linecap="butt" d="m980.6588 297.39633l-345.1958 51.94409" fill-rule="evenodd"></path><path fill="#ffffff" stroke="#ffffff" stroke-width="8.0" stroke-linecap="butt" d="m633.49677 336.27368l-33.934387 18.468994l37.866882 7.6645203z" fill-rule="evenodd"></path><path stroke="#ffffff" stroke-width="8.0" stroke-linejoin="round" stroke-linecap="butt" d="m980.6588 431.47507l-345.1958 51.94409" fill-rule="evenodd"></path><path fill="#ffffff" stroke="#ffffff" stroke-width="8.0" stroke-linecap="butt" d="m633.49677 470.35245l-33.934387 18.468964l37.866882 7.6645203z" fill-rule="evenodd"></path><path stroke="#ffffff" stroke-width="8.0" stroke-linejoin="round" stroke-linecap="butt" d="m980.6588 565.55383l-345.1958 51.94409" fill-rule="evenodd"></path><path fill="#ffffff" stroke="#ffffff" stroke-width="8.0" stroke-linecap="butt" d="m633.49677 604.43115l-33.934387 18.468994l37.866882 7.664551z" fill-rule="evenodd"></path><path stroke="#ffffff" stroke-width="8.0" stroke-linejoin="round" stroke-linecap="butt" d="m62.603676 76.703415l0 608.8819" fill-rule="nonzero"></path><path stroke="#ffffff" stroke-width="8.0" stroke-linejoin="round" stroke-linecap="butt" d="m456.12073 76.703415l0 609.73224" fill-rule="nonzero"></path><path stroke="#ffffff" stroke-width="8.0" stroke-linejoin="round" stroke-linecap="butt" d="m64.343834 391.2349l345.36346 59.725983" fill-rule="evenodd"></path><path fill="#ffffff" stroke="#ffffff" stroke-width="8.0" stroke-linecap="butt" d="m407.45557 463.98148l38.025513 -6.834015l-33.522034 -19.207184z" fill-rule="evenodd"></path><path stroke="#ffffff" stroke-width="8.0" stroke-linejoin="round" stroke-linecap="butt" d="m64.343834 76.703415l345.36346 59.725967" fill-rule="evenodd"></path><path fill="#ffffff" stroke="#ffffff" stroke-width="8.0" stroke-linecap="butt" d="m407.45557 149.44997l38.025513 -6.8339844l-33.522034 -19.207191z" fill-rule="evenodd"></path><path stroke="#ffffff" stroke-width="8.0" stroke-linejoin="round" stroke-linecap="butt" d="m66.950134 654.40155l345.36346 59.726013" fill-rule="evenodd"></path><path fill="#ffffff" stroke="#ffffff" stroke-width="8.0" stroke-linecap="butt" d="m410.0619 727.14813l38.025513 -6.8339844l-33.522064 -19.207214z" fill-rule="evenodd"></path><path stroke="#ffffff" stroke-width="8.0" stroke-linejoin="round" stroke-linecap="butt" d="m456.12073 144.16536l0 0c37.02481 0 67.03937 30.014557 67.03937 67.03937c0 18.51242 -7.503662 35.272263 -19.635376 47.403976c-6.065857 6.0658875 -13.288757 10.974731 -21.309265 14.367096c-2.0050964 0.848114 -4.0600586 1.6014099 -6.1592712 2.2543335l-0.36523438 0.1111145" fill-rule="evenodd"></path><path fill="#ffffff" stroke="#ffffff" stroke-width="8.0" stroke-linecap="butt" d="m475.69095 275.34125l3.8997498 -5.2581177l-11.901306 6.4450073l13.259674 2.71286z" fill-rule="evenodd"></path><path stroke="#ffffff" stroke-width="8.0" stroke-linejoin="round" stroke-linecap="butt" d="m456.12073 459.1404l0 0c37.02481 0 67.03937 30.014557 67.03937 67.0394c0 18.51239 -7.503662 35.272217 -19.635376 47.40399c-6.065857 6.065857 -13.288757 10.97467 -21.309265 14.367065c-2.0050964 0.8480835 -4.0600586 1.6014404 -6.1592712 2.2543335l-0.36523438 0.111083984" fill-rule="evenodd"></path><path fill="#ffffff" stroke="#ffffff" stroke-width="8.0" stroke-linecap="butt" d="m475.69095 590.31635l3.8997498 -5.2581177l-11.901306 6.4449463l13.259674 2.7128906z" fill-rule="evenodd"></path><path stroke="#ffffff" stroke-width="8.0" stroke-linejoin="round" stroke-linecap="butt" d="m455.2651 278.24408l-345.19583 51.944153" fill-rule="evenodd"></path><path fill="#ffffff" stroke="#ffffff" stroke-width="8.0" stroke-linecap="butt" d="m108.10303 317.12146l-33.93435 18.468964l37.866844 7.664551z" fill-rule="evenodd"></path><path stroke="#ffffff" stroke-width="8.0" stroke-linejoin="round" stroke-linecap="butt" d="m457.00525 593.2192l-345.1958 51.94409" fill-rule="evenodd"></path><path fill="#ffffff" stroke="#ffffff" stroke-width="8.0" stroke-linecap="butt" d="m109.8432 632.09656l-33.934357 18.468933l37.86685 7.664551z" fill-rule="evenodd"></path><path fill="#ffffff" d="m52.461098 58.04552l-6.296875 0l-2.5 -6.5l-11.4375 0l-2.359377 6.5l-6.140625 0l11.156252 -28.640625l6.109375 0l11.46875 28.640625zm-10.640625 -11.328125l-3.953125 -10.625l-3.859375 10.625l7.8125 0zm13.511719 -9.421875l5.109375 0l0 3.046875q1.0 -1.5625 2.703125 -2.53125q1.703125 -0.984375 3.765625 -0.984375q3.609375 0 6.125 2.84375q2.53125 2.828125 2.53125 7.890625q0 5.1875 -2.546875 8.078125q-2.53125 2.875 -6.140625 2.875q-1.71875 0 -3.125 -0.6875q-1.390625 -0.6875 -2.9375 -2.34375l0 10.453129l-5.484375 0l0 -28.640629zm5.421875 10.03125q0 3.484375 1.390625 5.15625q1.390625 1.671875 3.375 1.671875q1.921875 0 3.1875 -1.53125q1.265625 -1.53125 1.265625 -5.03125q0 -3.265625 -1.3125 -4.84375q-1.296875 -1.578125 -3.234375 -1.578125q-2.015625 0 -3.34375 1.5625q-1.328125 1.546875 -1.328125 4.59375zm19.011719 -10.03125l5.109375 0l0 3.046875q1.0 -1.5625 2.703125 -2.53125q1.703125 -0.984375 3.765625 -0.984375q3.609375 0 6.125 2.84375q2.53125 2.828125 2.53125 7.890625q0 5.1875 -2.546875 8.078125q-2.53125 2.875 -6.140625 2.875q-1.71875 0 -3.125 -0.6875q-1.390625 -0.6875 -2.9375 -2.34375l0 10.453129l-5.484375 0l0 -28.640629zm5.421875 10.03125q0 3.484375 1.390625 5.15625q1.390625 1.671875 3.375 1.671875q1.921875 0 3.1875 -1.53125q1.265625 -1.53125 1.265625 -5.03125q0 -3.265625 -1.3125 -4.84375q-1.296875 -1.578125 -3.234375 -1.578125q-2.015625 0 -3.34375 1.5625q-1.328125 1.546875 -1.328125 4.59375z" fill-rule="nonzero"></path><path fill="#ffffff" d="m430.12463 29.404896l10.5625 0q3.578125 0 5.453125 0.546875q2.515625 0.75 4.3125 2.640625q1.796875 1.890625 2.734375 4.640625q0.9375 2.75 0.9375 6.765625q0 3.53125 -0.875 6.09375q-1.078125 3.125 -3.0625 5.0625q-1.5 1.46875 -4.0625 2.28125q-1.921875 0.609375 -5.125 0.609375l-10.875 0l0 -28.640625zm5.78125 4.84375l0 18.96875l4.3125 0q2.421875 0 3.5 -0.265625q1.40625 -0.359375 2.328125 -1.1875q0.9375 -0.84375 1.515625 -2.765625q0.59375 -1.9375 0.59375 -5.25q0 -3.328125 -0.59375 -5.09375q-0.578125 -1.78125 -1.640625 -2.78125q-1.046875 -1.0 -2.671875 -1.34375q-1.203125 -0.28125 -4.75 -0.28125l-2.59375 0zm23.152344 -4.84375l11.4375 0q3.40625 0 5.0625 0.296875q1.671875 0.28125 2.984375 1.1875q1.328125 0.890625 2.203125 2.390625q0.890625 1.484375 0.890625 3.34375q0 2.0 -1.09375 3.6875q-1.078125 1.671875 -2.9375 2.515625q2.625 0.765625 4.03125 2.609375q1.40625 1.828125 1.40625 4.3125q0 1.953125 -0.921875 3.796875q-0.90625 1.84375 -2.484375 2.953125q-1.5625 1.09375 -3.859375 1.34375q-1.453125 0.15625 -6.984375 0.203125l-9.734375 0l0 -28.640625zm5.78125 4.765625l0 6.625l3.78125 0q3.375 0 4.203125 -0.09375q1.484375 -0.171875 2.328125 -1.015625q0.859375 -0.859375 0.859375 -2.25q0 -1.328125 -0.734375 -2.15625q-0.734375 -0.828125 -2.1875 -1.0q-0.859375 -0.109375 -4.9375 -0.109375l-3.3125 0zm0 11.390625l0 7.65625l5.34375 0q3.125 0 3.96875 -0.171875q1.28125 -0.234375 2.09375 -1.140625q0.8125 -0.90625 0.8125 -2.4375q0 -1.28125 -0.625 -2.171875q-0.625 -0.90625 -1.8125 -1.3125q-1.171875 -0.421875 -5.125 -0.421875l-4.65625 0z" fill-rule="nonzero"></path><path fill="#ffffff" d="m576.99915 58.04552l-6.296875 0l-2.5 -6.5l-11.4375 0l-2.359375 6.5l-6.140625 0l11.15625 -28.640625l6.109375 0l11.46875 28.640625zm-10.640625 -11.328125l-3.953125 -10.625l-3.859375 10.625l7.8125 0zm13.511719 -9.421875l5.109375 0l0 3.046875q1.0 -1.5625 2.703125 -2.53125q1.703125 -0.984375 3.765625 -0.984375q3.609375 0 6.125 2.84375q2.53125 2.828125 2.53125 7.890625q0 5.1875 -2.546875 8.078125q-2.53125 2.875 -6.140625 2.875q-1.71875 0 -3.125 -0.6875q-1.390625 -0.6875 -2.9375 -2.34375l0 10.453129l-5.484375 0l0 -28.640629zm5.421875 10.03125q0 3.484375 1.390625 5.15625q1.390625 1.671875 3.375 1.671875q1.921875 0 3.1875 -1.53125q1.265625 -1.53125 1.265625 -5.03125q0 -3.265625 -1.3125 -4.84375q-1.296875 -1.578125 -3.234375 -1.578125q-2.015625 0 -3.34375 1.5625q-1.328125 1.546875 -1.328125 4.59375zm19.011719 -10.03125l5.109375 0l0 3.046875q1.0 -1.5625 2.703125 -2.53125q1.703125 -0.984375 3.765625 -0.984375q3.609375 0 6.125 2.84375q2.53125 2.828125 2.53125 7.890625q0 5.1875 -2.546875 8.078125q-2.53125 2.875 -6.140625 2.875q-1.71875 0 -3.125 -0.6875q-1.390625 -0.6875 -2.9375 -2.34375l0 10.453129l-5.484375 0l0 -28.640629zm5.421875 10.03125q0 3.484375 1.390625 5.15625q1.390625 1.671875 3.375 1.671875q1.921875 0 3.1875 -1.53125q1.265625 -1.53125 1.265625 -5.03125q0 -3.265625 -1.3125 -4.84375q-1.296875 -1.578125 -3.234375 -1.578125q-2.015625 0 -3.34375 1.5625q-1.328125 1.546875 -1.328125 4.59375z" fill-rule="nonzero"></path><path fill="#ffffff" d="m954.6627 29.404896l10.5625 0q3.578125 0 5.453125 0.546875q2.515625 0.75 4.3125 2.640625q1.796875 1.890625 2.734375 4.640625q0.9375 2.75 0.9375 6.765625q0 3.53125 -0.875 6.09375q-1.078125 3.125 -3.0625 5.0625q-1.5 1.46875 -4.0625 2.28125q-1.921875 0.609375 -5.125 0.609375l-10.875 0l0 -28.640625zm5.78125 4.84375l0 18.96875l4.3125 0q2.421875 0 3.5 -0.265625q1.40625 -0.359375 2.328125 -1.1875q0.9375 -0.84375 1.515625 -2.765625q0.59375 -1.9375 0.59375 -5.25q0 -3.328125 -0.59375 -5.09375q-0.578125 -1.78125 -1.640625 -2.78125q-1.046875 -1.0 -2.671875 -1.34375q-1.203125 -0.28125 -4.75 -0.28125l-2.59375 0zm23.152344 -4.84375l11.4375 0q3.40625 0 5.0625 0.296875q1.671875 0.28125 2.984375 1.1875q1.328125 0.890625 2.203125 2.390625q0.890625 1.484375 0.890625 3.34375q0 2.0 -1.09375 3.6875q-1.078125 1.671875 -2.9375 2.515625q2.625 0.765625 4.03125 2.609375q1.40625 1.828125 1.40625 4.3125q0 1.953125 -0.921875 3.796875q-0.90625 1.84375 -2.484375 2.953125q-1.5625 1.09375 -3.859375 1.34375q-1.453125 0.15625 -6.984375 0.203125l-9.734375 0l0 -28.640625zm5.78125 4.765625l0 6.625l3.78125 0q3.375 0 4.203125 -0.09375q1.484375 -0.171875 2.328125 -1.015625q0.859375 -0.859375 0.859375 -2.25q0 -1.328125 -0.734375 -2.15625q-0.734375 -0.828125 -2.1875 -1.0q-0.859375 -0.109375 -4.9375 -0.109375l-3.3125 0zm0 11.390625l0 7.65625l5.34375 0q3.125 0 3.96875 -0.171875q1.28125 -0.234375 2.09375 -1.140625q0.8125 -0.90625 0.8125 -2.4375q0 -1.28125 -0.625 -2.171875q-0.625 -0.90625 -1.8125 -1.3125q-1.171875 -0.421875 -5.125 -0.421875l-4.65625 0z" fill-rule="nonzero"></path><path fill="#ffffff" d="m147.65698 20.804688l4.296875 -0.375q0.296875 2.578125 1.40625 4.234375q1.125 1.65625 3.46875 2.671875q2.34375 1.015625 5.265625 1.015625q2.609375 0 4.59375 -0.765625q2.0 -0.78125 2.96875 -2.125q0.96875 -1.34375 0.96875 -2.9375q0 -1.625 -0.9375 -2.828125q-0.9375 -1.203125 -3.09375 -2.03125q-1.375 -0.53125 -6.109375 -1.671875q-4.734375 -1.140625 -6.640625 -2.140625q-2.453125 -1.296875 -3.671875 -3.203125q-1.203125 -1.90625 -1.203125 -4.28125q0 -2.59375 1.46875 -4.859375q1.484375 -2.265625 4.3125 -3.4375q2.84375 -1.171875 6.3125 -1.171875q3.828125 0 6.734375 1.234375q2.921875 1.234375 4.484375 3.625q1.578125 2.390625 1.703125 5.40625l-4.359375 0.328125q-0.359375 -3.25 -2.390625 -4.90625q-2.015625 -1.671875 -5.984375 -1.671875q-4.125 0 -6.015625 1.515625q-1.875 1.5 -1.875 3.640625q0 1.84375 1.328125 3.046875q1.3125 1.1875 6.859375 2.453125q5.546875 1.25 7.609375 2.1875q3.0 1.375 4.421875 3.5q1.4375 2.125 1.4375 4.890625q0 2.734375 -1.578125 5.171875q-1.5625 2.421875 -4.515625 3.78125q-2.9375 1.34375 -6.609375 1.34375q-4.671875 0 -7.828125 -1.359375q-3.140625 -1.375 -4.9375 -4.09375q-1.796875 -2.734375 -1.890625 -6.1875zm50.0625 3.03125l4.359375 0.53125q-1.03125 3.828125 -3.828125 5.9375q-2.78125 2.109375 -7.109375 2.109375q-5.46875 0 -8.671875 -3.359375q-3.1875 -3.375 -3.1875 -9.4375q0 -6.28125 3.234375 -9.75q3.234375 -3.46875 8.390625 -3.46875q4.984375 0 8.140625 3.40625q3.171875 3.390625 3.171875 9.546875q0 0.375 -0.015625 1.125l-18.5625 0q0.234375 4.109375 2.3125 6.296875q2.09375 2.171875 5.203125 2.171875q2.328125 0 3.96875 -1.21875q1.640625 -1.21875 2.59375 -3.890625zm-13.84375 -6.828125l13.890625 0q-0.28125 -3.140625 -1.59375 -4.703125q-2.015625 -2.4375 -5.21875 -2.4375q-2.90625 0 -4.890625 1.953125q-1.984375 1.9375 -2.1875 5.1875zm39.367188 24.390625l0 -12.203125q-0.984375 1.390625 -2.75 2.3125q-1.765625 0.90625 -3.765625 0.90625q-4.421875 0 -7.625 -3.53125q-3.203125 -3.546875 -3.203125 -9.71875q0 -3.75 1.296875 -6.71875q1.3125 -2.984375 3.78125 -4.515625q2.46875 -1.53125 5.421875 -1.53125q4.625 0 7.265625 3.890625l0 -3.328125l3.796875 0l0 34.4375l-4.21875 0zm-13.0 -22.0625q0 4.796875 2.015625 7.203125q2.015625 2.40625 4.828125 2.40625q2.6875 0 4.625 -2.28125q1.953125 -2.296875 1.953125 -6.953125q0 -4.96875 -2.046875 -7.46875q-2.046875 -2.515625 -4.8125 -2.515625q-2.75 0 -4.65625 2.328125q-1.90625 2.328125 -1.90625 7.28125zm40.148438 12.515625l0 -3.65625q-2.90625 4.21875 -7.90625 4.21875q-2.203125 0 -4.109375 -0.84375q-1.90625 -0.84375 -2.84375 -2.125q-0.921875 -1.28125 -1.296875 -3.125q-0.25 -1.25 -0.25 -3.9375l0 -15.421875l4.21875 0l0 13.796875q0 3.3125 0.25 4.453125q0.40625 1.671875 1.6875 2.625q1.296875 0.9375 3.1875 0.9375q1.90625 0 3.5625 -0.96875q1.671875 -0.96875 2.359375 -2.640625q0.6875 -1.6875 0.6875 -4.875l0 -13.328125l4.21875 0l0 24.890625l-3.765625 0zm27.414062 -8.015625l4.359375 0.53125q-1.03125 3.828125 -3.828125 5.9375q-2.78125 2.109375 -7.109375 2.109375q-5.46875 0 -8.671875 -3.359375q-3.1875 -3.375 -3.1875 -9.4375q0 -6.28125 3.234375 -9.75q3.234375 -3.46875 8.390625 -3.46875q4.984375 0 8.140625 3.40625q3.171875 3.390625 3.171875 9.546875q0 0.375 -0.015625 1.125l-18.5625 0q0.234375 4.109375 2.3125 6.296875q2.09375 2.171875 5.203125 2.171875q2.328125 0 3.96875 -1.21875q1.640625 -1.21875 2.59375 -3.890625zm-13.84375 -6.828125l13.890625 0q-0.28125 -3.140625 -1.59375 -4.703125q-2.015625 -2.4375 -5.21875 -2.4375q-2.90625 0 -4.890625 1.953125q-1.984375 1.9375 -2.1875 5.1875zm23.507812 14.84375l0 -24.890625l3.796875 0l0 3.53125q2.734375 -4.09375 7.921875 -4.09375q2.25 0 4.125 0.8125q1.890625 0.796875 2.828125 2.109375q0.9375 1.3125 1.3125 3.125q0.234375 1.171875 0.234375 4.09375l0 15.3125l-4.21875 0l0 -15.140625q0 -2.578125 -0.5 -3.859375q-0.484375 -1.28125 -1.734375 -2.03125q-1.25 -0.765625 -2.9375 -0.765625q-2.703125 0 -4.65625 1.71875q-1.953125 1.703125 -1.953125 6.484375l0 13.59375l-4.21875 0zm35.898438 -3.78125l0.609375 3.734375q-1.78125 0.375 -3.1875 0.375q-2.296875 0 -3.5625 -0.71875q-1.265625 -0.734375 -1.78125 -1.921875q-0.515625 -1.1875 -0.515625 -4.984375l0 -14.3125l-3.09375 0l0 -3.28125l3.09375 0l0 -6.171875l4.203125 -2.53125l0 8.703125l4.234375 0l0 3.28125l-4.234375 0l0 14.546875q0 1.8125 0.21875 2.328125q0.21875 0.515625 0.71875 0.828125q0.515625 0.296875 1.453125 0.296875q0.703125 0 1.84375 -0.171875zm4.1484375 -25.734375l0 -4.84375l4.21875 0l0 4.84375l-4.21875 0zm0 29.515625l0 -24.890625l4.21875 0l0 24.890625l-4.21875 0zm26.882812 -3.078125q-2.34375 2.0 -4.515625 2.828125q-2.15625 0.8125 -4.640625 0.8125q-4.109375 0 -6.3125 -2.0q-2.203125 -2.015625 -2.203125 -5.125q0 -1.828125 0.828125 -3.34375q0.84375 -1.515625 2.1875 -2.421875q1.34375 -0.921875 3.03125 -1.390625q1.25 -0.328125 3.75 -0.625q5.109375 -0.609375 7.53125 -1.453125q0.015625 -0.875 0.015625 -1.109375q0 -2.578125 -1.1875 -3.625q-1.625 -1.4375 -4.8125 -1.4375q-2.96875 0 -4.390625 1.046875q-1.421875 1.046875 -2.09375 3.6875l-4.125 -0.5625q0.5625 -2.640625 1.84375 -4.265625q1.296875 -1.640625 3.734375 -2.515625q2.4375 -0.875 5.640625 -0.875q3.1875 0 5.171875 0.75q2.0 0.75 2.9375 1.890625q0.9375 1.125 1.3125 2.859375q0.21875 1.078125 0.21875 3.890625l0 5.625q0 5.890625 0.265625 7.453125q0.265625 1.546875 1.0625 2.984375l-4.40625 0q-0.65625 -1.3125 -0.84375 -3.078125zm-0.34375 -9.421875q-2.296875 0.9375 -6.890625 1.59375q-2.609375 0.375 -3.6875 0.84375q-1.078125 0.46875 -1.671875 1.375q-0.578125 0.90625 -0.578125 2.0q0 1.6875 1.28125 2.8125q1.28125 1.125 3.734375 1.125q2.4375 0 4.328125 -1.0625q1.90625 -1.0625 2.796875 -2.921875q0.6875 -1.421875 0.6875 -4.21875l0 -1.546875zm10.710968 12.5l0 -34.359375l4.21875 0l0 34.359375l-4.21875 0z" fill-rule="nonzero"></path><path fill="#ffffff" d="m678.6224 31.851562l0 -34.359375l12.96875 0q3.421875 0 5.21875 0.328125q2.53125 0.421875 4.234375 1.609375q1.71875 1.171875 2.765625 3.3125q1.046875 2.125 1.046875 4.6875q0 4.375 -2.796875 7.421875q-2.78125 3.03125 -10.078125 3.03125l-8.8125 0l0 13.96875l-4.546875 0zm4.546875 -18.03125l8.890625 0q4.40625 0 6.25 -1.640625q1.859375 -1.640625 1.859375 -4.609375q0 -2.15625 -1.09375 -3.6875q-1.09375 -1.546875 -2.875 -2.03125q-1.140625 -0.3125 -4.234375 -0.3125l-8.796875 0l0 12.28125zm26.953125 -11.484375l0 -4.84375l4.21875 0l0 4.84375l-4.21875 0zm0 29.515625l0 -24.890625l4.21875 0l0 24.890625l-4.21875 0zm10.6484375 9.546875l0 -34.4375l3.84375 0l0 3.234375q1.359375 -1.90625 3.0625 -2.84375q1.71875 -0.953125 4.15625 -0.953125q3.1875 0 5.625 1.640625q2.4375 1.640625 3.671875 4.625q1.25 2.984375 1.25 6.546875q0 3.828125 -1.375 6.890625q-1.375 3.046875 -3.984375 4.6875q-2.609375 1.625 -5.5 1.625q-2.109375 0 -3.78125 -0.890625q-1.671875 -0.890625 -2.75 -2.25l0 12.125l-4.21875 0zm3.8125 -21.859375q0 4.8125 1.9375 7.109375q1.953125 2.296875 4.71875 2.296875q2.8125 0 4.8125 -2.375q2.015625 -2.390625 2.015625 -7.375q0 -4.765625 -1.96875 -7.125q-1.953125 -2.375 -4.671875 -2.375q-2.6875 0 -4.765625 2.53125q-2.078125 2.515625 -2.078125 7.3125zm39.914062 4.296875l4.359375 0.53125q-1.03125 3.828125 -3.828125 5.9375q-2.78125 2.109375 -7.109375 2.109375q-5.46875 0 -8.671875 -3.359375q-3.1875 -3.375 -3.1875 -9.4375q0 -6.28125 3.234375 -9.75q3.234375 -3.46875 8.390625 -3.46875q4.984375 0 8.140625 3.40625q3.171875 3.390625 3.171875 9.546875q0 0.375 -0.015625 1.125l-18.5625 0q0.234375 4.109375 2.3125 6.296875q2.09375 2.171875 5.203125 2.171875q2.328125 0 3.96875 -1.21875q1.640625 -1.21875 2.59375 -3.890625zm-13.84375 -6.828125l13.890625 0q-0.28125 -3.140625 -1.59375 -4.703125q-2.015625 -2.4375 -5.21875 -2.4375q-2.90625 0 -4.890625 1.953125q-1.984375 1.9375 -2.1875 5.1875zm23.414062 14.84375l0 -34.359375l4.21875 0l0 34.359375l-4.21875 0zm10.7734375 -29.515625l0 -4.84375l4.21875 0l0 4.84375l-4.21875 0zm0 29.515625l0 -24.890625l4.21875 0l0 24.890625l-4.21875 0zm10.6484375 0l0 -24.890625l3.796875 0l0 3.53125q2.734375 -4.09375 7.921875 -4.09375q2.25 0 4.125 0.8125q1.890625 0.796875 2.828125 2.109375q0.9375 1.3125 1.3125 3.125q0.234375 1.171875 0.234375 4.09375l0 15.3125l-4.21875 0l0 -15.140625q0 -2.578125 -0.5 -3.859375q-0.484375 -1.28125 -1.734375 -2.03125q-1.25 -0.765625 -2.9375 -0.765625q-2.703125 0 -4.65625 1.71875q-1.953125 1.703125 -1.953125 6.484375l0 13.59375l-4.21875 0zm43.726562 -8.015625l4.359375 0.53125q-1.03125 3.828125 -3.828125 5.9375q-2.78125 2.109375 -7.109375 2.109375q-5.46875 0 -8.671875 -3.359375q-3.1875 -3.375 -3.1875 -9.4375q0 -6.28125 3.234375 -9.75q3.234375 -3.46875 8.390625 -3.46875q4.984375 0 8.140625 3.40625q3.171875 3.390625 3.171875 9.546875q0 0.375 -0.015625 1.125l-18.5625 0q0.234375 4.109375 2.3125 6.296875q2.09375 2.171875 5.203125 2.171875q2.328125 0 3.96875 -1.21875q1.640625 -1.21875 2.59375 -3.890625zm-13.84375 -6.828125l13.890625 0q-0.28125 -3.140625 -1.59375 -4.703125q-2.015625 -2.4375 -5.21875 -2.4375q-2.90625 0 -4.890625 1.953125q-1.984375 1.9375 -2.1875 5.1875zm39.648438 14.84375l0 -3.140625q-2.359375 3.703125 -6.953125 3.703125q-2.984375 0 -5.484375 -1.640625q-2.484375 -1.640625 -3.859375 -4.578125q-1.375 -2.953125 -1.375 -6.765625q0 -3.734375 1.234375 -6.765625q1.25 -3.03125 3.734375 -4.640625q2.484375 -1.625 5.5625 -1.625q2.25 0 4.0 0.953125q1.765625 0.9375 2.859375 2.46875l0 -12.328125l4.203125 0l0 34.359375l-3.921875 0zm-13.328125 -12.421875q0 4.78125 2.015625 7.15625q2.015625 2.359375 4.75 2.359375q2.765625 0 4.703125 -2.265625q1.9375 -2.265625 1.9375 -6.90625q0 -5.109375 -1.96875 -7.5q-1.96875 -2.390625 -4.859375 -2.390625q-2.8125 0 -4.703125 2.296875q-1.875 2.296875 -1.875 7.25z" fill-rule="nonzero"></path><path fill="#ffffff" d="m228.07147 85.56098l2.5534058 -16.996773l7.5259705 1.1235886q2.271698 0.33914948 3.3765411 0.9780426q1.1203003 0.64120483 1.657074 1.9062042q0.5367737 1.2649994 0.3278656 2.6556473q-0.2715912 1.8078384 -1.6341095 2.8840714q-1.3601837 1.0607834 -3.8529358 1.0361938q0.8336334 0.5510025 1.2345734 1.0374146q0.8520813 1.0593033 1.5286713 2.5505524l2.2575989 5.060707l-2.8280334 -0.4222107l-1.7246704 -3.875267q-0.7437744 -1.6750641 -1.2721252 -2.575447q-0.51057434 -0.91352844 -0.97180176 -1.3141556q-0.44577026 -0.3983078 -0.95262146 -0.6003647q-0.3747406 -0.1349411 -1.2401428 -0.26413727l-2.611679 -0.38991547l-1.1327972 7.54039l-2.2407837 -0.33454132zm3.6660614 -9.152748l4.8370056 0.72213745q1.5453796 0.23072052 2.4595337 0.035438538q0.91415405 -0.19528198 1.4667664 -0.82369995q0.56806946 -0.62610626 0.6934204 -1.460495q0.18106079 -1.2052231 -0.583725 -2.109314q-0.74935913 -0.9017868 -2.6501617 -1.1855621l-5.377899 -0.8028946l-0.8449402 5.6243896zm22.201218 8.954475l2.1062927 0.5988312q-0.7931824 1.80896 -2.326416 2.6543274q-1.530899 0.82992554 -3.6789703 0.50922394q-2.7044067 -0.40374756 -4.04776 -2.294716q-1.3255768 -1.9040985 -0.8729248 -4.9171677q0.466568 -3.105774 2.3159637 -4.583267q1.8648529 -1.4751816 4.4147186 -1.0944977q2.4725952 0.36914062 3.7804108 2.2863922q1.3232422 1.9195557 0.8659668 4.963524q-0.027862549 0.1854248 -0.09902954 0.5539551l-9.179504 -1.3704605q-0.19592285 2.0403137 0.6769867 3.2765121q0.87290955 1.2361908 2.4182892 1.4669037q1.14357 0.17073059 2.0376892 -0.3119049q0.9095917 -0.48033905 1.5882874 -1.7376556zm-6.355423 -4.39283l6.8769073 1.0266876q0.093048096 -1.5659256 -0.43762207 -2.450859q-0.8079834 -1.3528824 -2.3997192 -1.5905228q-1.4371948 -0.21456909 -2.572464 0.61122894q-1.1175079 0.81264496 -1.467102 2.4034653zm17.664963 14.959869l0.90530396 -6.0261307q-0.5812073 0.60834503 -1.5317078 0.9403839q-0.94818115 0.31658936 -1.9217834 0.17124176q-2.1944275 -0.32762146 -3.5238342 -2.3112946q-1.311676 -1.9968109 -0.8543701 -5.040779q0.27856445 -1.8541946 1.1326904 -3.2275085q0.8695679 -1.3710022 2.2041626 -1.9458618q1.352356 -0.58800507 2.8049927 -0.3711319q2.2871704 0.34145355 3.3105774 2.469017l0.24838257 -1.6533203l1.8699036 0.27916718l-2.558075 17.02768l-2.0862427 -0.3114624zm-4.789917 -11.868629q-0.3574829 2.3795547 0.45281982 3.7169876q0.8257446 1.3397369 2.2165833 1.5473862q1.32901 0.19841003 2.456604 -0.7865143q1.1430359 -0.9826126 1.4912415 -3.300354q0.3690796 -2.45681 -0.46517944 -3.8452148q-0.8342285 -1.3883972 -2.1941528 -1.5914307q-1.3599243 -0.20302582 -2.476715 0.8151016q-1.1144409 1.0026855 -1.4812012 3.4440384zm18.915588 9.1590805l0.27160645 -1.8078384q-1.7505798 1.8713989 -4.2077026 1.5045624q-1.097229 -0.16381073 -1.9772339 -0.7217407q-0.8800049 -0.55793 -1.2484436 -1.2606659q-0.3529663 -0.7004242 -0.40145874 -1.6397552q-0.04623413 -0.63882446 0.15338135 -1.9676666l1.1467285 -7.633095l2.0862427 0.3114624l-1.026001 6.8296204q-0.24606323 1.6378708 -0.1928711 2.230339q0.062438965 0.8466263 0.6240845 1.4202194q0.57940674 0.5604477 1.5220947 0.70118713q0.9272156 0.13842773 1.8182068 -0.21829224q0.90878296 -0.36986542 1.3717957 -1.1380386q0.46533203 -0.7836304 0.7021179 -2.3596954l0.9911804 -6.5978394l2.0862427 0.3114624l-1.8500671 12.314941l-1.8699036 -0.27916718zm14.168823 -1.9448013l2.1062927 0.5988312q-0.7931824 1.80896 -2.326416 2.6543274q-1.5309143 0.82992554 -3.6789856 0.50922394q-2.7043762 -0.40374756 -4.0477295 -2.294716q-1.325592 -1.9040985 -0.8729553 -4.9171677q0.46658325 -3.105774 2.315979 -4.583267q1.8648682 -1.4751816 4.414734 -1.0944977q2.4725952 0.36914062 3.7803955 2.2863922q1.3232422 1.9195557 0.8659668 4.963524q-0.027862549 0.1854248 -0.09902954 0.5539551l-9.179504 -1.3704605q-0.19592285 2.0403137 0.67700195 3.2765121q0.8728943 1.2361908 2.418274 1.4669037q1.1435852 0.17073059 2.0376892 -0.3119049q0.9095764 -0.48033905 1.5882874 -1.7376556zm-6.3554077 -4.39283l6.876892 1.0266876q0.093048096 -1.5659256 -0.43762207 -2.450859q-0.8079834 -1.3528824 -2.3997192 -1.5905228q-1.4371948 -0.21456909 -2.5724792 0.61122894q-1.1174927 0.81264496 -1.4670715 2.4034653zm10.2404175 5.2730103l2.1195374 -0.015327454q-0.015716553 1.2615128 0.6726074 2.0435944q0.7037964 0.7843933 2.1255188 0.9966507q1.4371948 0.21456909 2.2208252 -0.2687683q0.7836304 -0.4833374 0.90200806 -1.2713699q0.106781006 -0.7107773 -0.4510193 -1.2048035q-0.37545776 -0.34042358 -2.0258179 -1.0291672q-2.2012634 -0.91316986 -3.034912 -1.46418q-0.81585693 -0.56414795 -1.1680603 -1.3750458q-0.33441162 -0.82403564 -0.19976807 -1.7202301q0.12301636 -0.8189316 0.59835815 -1.4588852q0.49313354 -0.65309906 1.2118225 -1.0197449q0.5324707 -0.28386688 1.4041138 -0.40650177q0.8894043 -0.13578033 1.8475342 0.0072631836q1.4526672 0.21687317 2.4871826 0.79787445q1.0345459 0.5810013 1.4354248 1.3833618q0.41864014 0.7892227 0.4407959 2.0089874l-2.081665 -0.026412964q0.0048217773 -0.9787674 -0.5807495 -1.6033325q-0.5832825 -0.64001465 -1.8041077 -0.8222809q-1.4371948 -0.21456909 -2.1273193 0.17214966q-0.690094 0.38671112 -0.7852783 1.0202255q-0.060333252 0.40174103 0.15362549 0.7654495q0.19619751 0.37685394 0.72003174 0.6762314q0.29049683 0.16975403 1.7577515 0.815361q2.1216736 0.91708374 2.9290466 1.432579q0.8251343 0.5023422 1.2105713 1.3023987q0.40316772 0.786911 0.24301147 1.8530731q-0.15551758 1.0352554 -0.91296387 1.8700714q-0.74194336 0.8371124 -1.9621277 1.1762848q-1.217865 0.32372284 -2.6705017 0.10684967q-2.3953552 -0.35760498 -3.513977 -1.5356979q-1.1008606 -1.1912384 -1.161499 -3.2066574zm16.990204 4.384941l0.032836914 1.8848877q-0.91104126 0.069366455 -1.6064453 -0.034461975q-1.1435852 -0.17073059 -1.7237854 -0.6207123q-0.56243896 -0.4631195 -0.7369385 -1.089508q-0.15905762 -0.62407684 0.12182617 -2.493721l1.0654602 -7.092293l-1.5299072 -0.22840881l0.24371338 -1.6224213l1.5299377 0.22841644l0.4572754 -3.0439682l2.2588196 -0.94242096l-0.6452942 4.2955475l2.1016846 0.3137741l-0.24371338 1.6224213l-2.101715 -0.3137741l-1.0817261 7.200447q-0.13461304 0.89619446 -0.06591797 1.1750259q0.08648682 0.2656784 0.31054688 0.45711517q0.22634888 0.17597961 0.6899719 0.24519348q0.33999634 0.05075836 0.92337036 0.05886078z" fill-rule="nonzero"></path><path fill="#ffffff" d="m755.8142 108.89639l2.5534058 -16.99678l7.526001 1.1235962q2.2716675 0.33914948 3.3765259 0.9780426q1.1203003 0.6411972 1.6570435 1.9062042q0.5368042 1.2649994 0.32788086 2.6556473q-0.27160645 1.8078384 -1.6340942 2.8840714q-1.3601685 1.0607834 -3.8529663 1.0361862q0.8336792 0.55101013 1.2346191 1.0374222q0.8520508 1.0593033 1.5286255 2.5505524l2.2576294 5.0606995l-2.828064 -0.4222107l-1.7246704 -3.875267q-0.7437744 -1.6750565 -1.2720947 -2.575447q-0.5105591 -0.91352844 -0.97180176 -1.314148q-0.44580078 -0.3983078 -0.9526367 -0.6003647q-0.37475586 -0.1349411 -1.2401733 -0.2641449l-2.6116333 -0.38990784l-1.1328125 7.54039l-2.2407837 -0.33454132zm3.6660767 -9.152756l4.836975 0.7221451q1.5454102 0.23072052 2.4595337 0.035438538q0.9141846 -0.19528961 1.4667969 -0.82369995q0.5680542 -0.62610626 0.6934204 -1.460495q0.18103027 -1.2052307 -0.58374023 -2.109314q-0.7493286 -0.9017868 -2.6501465 -1.1855698l-5.3779297 -0.80288696l-0.84490967 5.624382zm22.201172 8.954483l2.1063232 0.59882355q-0.79315186 1.80896 -2.326416 2.654335q-1.5308838 0.8299179 -3.678955 0.50922394q-2.7044067 -0.4037552 -4.0477905 -2.294716q-1.3255615 -1.9041061 -0.8729248 -4.9171677q0.46661377 -3.105774 2.315979 -4.583267q1.8648682 -1.4751816 4.414734 -1.0945053q2.4725952 0.36914825 3.7803955 2.2863998q1.3232422 1.9195557 0.8659668 4.963524q-0.027832031 0.18541718 -0.09899902 0.5539551l-9.179565 -1.3704605q-0.19586182 2.0403137 0.67700195 3.2765045q0.8729248 1.2361984 2.418335 1.4669113q1.1435547 0.17073059 2.0376587 -0.31191254q0.90960693 -0.48033142 1.5882568 -1.737648zm-6.3554077 -4.39283l6.876953 1.0266876q0.09301758 -1.5659256 -0.43762207 -2.450859q-0.8079834 -1.35289 -2.3997192 -1.5905228q-1.4371948 -0.21456909 -2.5725098 0.6112213q-1.1174927 0.8126526 -1.467102 2.403473zm17.664978 14.959862l0.90527344 -6.0261307q-0.58117676 0.60835266 -1.5316772 0.94039154q-0.94818115 0.31658936 -1.9217529 0.17123413q-2.194458 -0.32761383 -3.5238647 -2.311287q-1.3116455 -1.9968109 -0.8543701 -5.040779q0.27856445 -1.8541946 1.1326904 -3.2275085q0.8695679 -1.3710022 2.2041626 -1.9458618q1.352356 -0.5880127 2.8049927 -0.37113953q2.2871704 0.34146118 3.310608 2.4690247l0.24835205 -1.6533203l1.869873 0.27916718l-2.5580444 17.02768l-2.0862427 -0.31147003zm-4.789917 -11.868622q-0.3574829 2.379547 0.45281982 3.71698q0.8257446 1.3397446 2.2165527 1.5473862q1.3290405 0.19841766 2.456665 -0.78650665q1.1430054 -0.9826126 1.4912109 -3.300354q0.3690796 -2.45681 -0.46514893 -3.8452148q-0.83428955 -1.3883972 -2.1942139 -1.5914307q-1.3599243 -0.20303345 -2.4766846 0.8151016q-1.1144409 1.0026855 -1.4812012 3.4440384zm18.915588 9.1590805l0.27160645 -1.8078384q-1.7505493 1.8713989 -4.2077026 1.5045624q-1.097229 -0.16381073 -1.9772339 -0.7217407q-0.8800049 -0.55793 -1.2484131 -1.2606659q-0.35302734 -0.7004242 -0.40148926 -1.6397552q-0.04626465 -0.63882446 0.15338135 -1.9676666l1.1467285 -7.6331024l2.0862427 0.31147003l-1.026001 6.8296127q-0.24603271 1.6378708 -0.1928711 2.2303467q0.062438965 0.8466263 0.6240845 1.4202194q0.57940674 0.5604477 1.5220947 0.70118713q0.92718506 0.13842773 1.8182373 -0.21829224q0.90875244 -0.36986542 1.3717651 -1.1380463q0.46533203 -0.7836304 0.7020874 -2.3596954l0.99121094 -6.5978394l2.0862427 0.31147003l-1.8500366 12.314941l-1.8699341 -0.27916718zm14.168823 -1.9448013l2.1062622 0.59882355q-0.79315186 1.80896 -2.326355 2.654335q-1.5309448 0.8299179 -3.679016 0.50922394q-2.7044067 -0.4037552 -4.0477295 -2.294716q-1.3255615 -1.9041061 -0.8729248 -4.9171677q0.46655273 -3.105774 2.315979 -4.583267q1.8648071 -1.4751816 4.414673 -1.0945053q2.4725952 0.36914825 3.7803955 2.2863998q1.3233032 1.9195557 0.8659668 4.963524q-0.027832031 0.1854248 -0.09899902 0.5539551l-9.179504 -1.3704605q-0.19592285 2.0403137 0.67700195 3.2765045q0.8729248 1.2361984 2.418274 1.4669113q1.1435547 0.17073059 2.0377197 -0.31191254q0.9095459 -0.48033142 1.5882568 -1.737648zm-6.3554077 -4.39283l6.876892 1.0266876q0.09307861 -1.5659256 -0.43762207 -2.450859q-0.8079834 -1.35289 -2.3997192 -1.5905228q-1.4371948 -0.21456909 -2.5724487 0.6112213q-1.1174927 0.8126526 -1.467102 2.403473zm10.2404175 5.2730103l2.1195679 -0.015327454q-0.01574707 1.2615128 0.6726074 2.0435944q0.70373535 0.7843933 2.1254883 0.9966507q1.4371948 0.21456909 2.2208252 -0.2687683q0.7836304 -0.48334503 0.9020386 -1.2713776q0.10675049 -0.71076965 -0.4510498 -1.2047958q-0.37542725 -0.34042358 -2.0258179 -1.0291672q-2.201294 -0.91316986 -3.034912 -1.46418q-0.81585693 -0.5641556 -1.1680298 -1.3750458q-0.33441162 -0.82403564 -0.1998291 -1.7202301q0.123046875 -0.8189392 0.5983887 -1.4588852q0.49316406 -0.65309906 1.211853 -1.0197449q0.53240967 -0.28386688 1.4040527 -0.40650177q0.88946533 -0.13578796 1.8475952 0.007255554q1.4526367 0.21687317 2.4871826 0.7978821q1.0345459 0.5810013 1.4354248 1.3833618q0.41864014 0.7892151 0.4407959 2.0089874l-2.081665 -0.026420593q0.0048217773 -0.97875977 -0.5807495 -1.6033249q-0.583313 -0.64001465 -1.8041382 -0.8222809q-1.4371948 -0.21456909 -2.1273193 0.17214966q-0.6901245 0.38671112 -0.7852783 1.0202255q-0.06036377 0.40174103 0.15362549 0.7654495q0.19616699 0.3768463 0.72003174 0.6762314q0.29052734 0.16975403 1.7577515 0.815361q2.121643 0.91708374 2.929016 1.4325714q0.8251953 0.50234985 1.2105713 1.3024063q0.40319824 0.786911 0.24304199 1.8530731q-0.15551758 1.0352554 -0.91296387 1.8700714q-0.74194336 0.8371124 -1.9621582 1.1762848q-1.2178345 0.32372284 -2.6704712 0.10684967q-2.3953247 -0.3576126 -3.513977 -1.5356979q-1.1008911 -1.1912384 -1.161499 -3.2066574zm16.990234 4.384941l0.032836914 1.8848877q-0.9110718 0.069358826 -1.6064453 -0.034461975q-1.1436157 -0.17073059 -1.7238159 -0.6207123q-0.56243896 -0.46312714 -0.7369385 -1.089508q-0.15905762 -0.62407684 0.12182617 -2.493721l1.0654907 -7.092293l-1.5299683 -0.22840881l0.24377441 -1.6224213l1.5299072 0.22840881l0.4572754 -3.0439682l2.25885 -0.94242096l-0.6453247 4.295555l2.1016846 0.3137741l-0.24371338 1.6224136l-2.1016846 -0.3137741l-1.0817261 7.2004547q-0.13464355 0.89619446 -0.06591797 1.1750259q0.08648682 0.2656784 0.31048584 0.45710754q0.2263794 0.17597961 0.69000244 0.24520111q0.33996582 0.050750732 0.9234009 0.05886078z" fill-rule="nonzero"></path><path fill="#ffffff" d="m750.80634 157.33997l2.5534058 -16.99678l7.526001 1.1235962q2.2716675 0.33914185 3.3765259 0.9780426q1.1203003 0.64120483 1.6570435 1.9062042q0.5368042 1.2649994 0.32788086 2.6556396q-0.27160645 1.8078461 -1.6340942 2.884079q-1.3601685 1.0607758 -3.8529663 1.0361786q0.8336792 0.55101013 1.2346191 1.0374298q0.8520508 1.0592957 1.5286255 2.5505524l2.2576294 5.0606995l-2.828064 -0.4222107l-1.7246704 -3.8752747q-0.7437744 -1.6750488 -1.2720947 -2.5754395q-0.5105591 -0.91352844 -0.97180176 -1.314148q-0.44580078 -0.39831543 -0.9526367 -0.6003723q-0.37475586 -0.13493347 -1.2401733 -0.2641449l-2.6116333 -0.38990784l-1.1328125 7.54039l-2.2407837 -0.3345337zm3.6660767 -9.152756l4.836975 0.72213745q1.5454102 0.23072815 2.4595337 0.035446167q0.9141846 -0.19529724 1.4667969 -0.82369995q0.5680542 -0.6261139 0.6934204 -1.460495q0.18103027 -1.2052307 -0.58374023 -2.109314q-0.7493286 -0.90179443 -2.6501465 -1.1855621l-5.3779297 -0.8029022l-0.84490967 5.6243896zm22.201172 8.954483l2.1063232 0.5988159q-0.79315186 1.80896 -2.326416 2.6543427q-1.5308838 0.8299103 -3.678955 0.5092163q-2.7044067 -0.40374756 -4.0477905 -2.2947083q-1.3255615 -1.9041138 -0.8729248 -4.9171753q0.46661377 -3.105774 2.315979 -4.583267q1.8648682 -1.475174 4.414734 -1.0944977q2.4725952 0.36914062 3.7803955 2.2863922q1.3232422 1.9195557 0.8659668 4.9635315q-0.027832031 0.1854248 -0.09899902 0.5539551l-9.179565 -1.3704681q-0.19586182 2.0403137 0.67700195 3.2765045q0.8729248 1.236206 2.418335 1.466919q1.1435547 0.17073059 2.0376587 -0.31192017q0.90960693 -0.48033142 1.5882568 -1.7376404zm-6.3554077 -4.3928375l6.876953 1.0266876q0.09301758 -1.565918 -0.43762207 -2.4508514q-0.8079834 -1.35289 -2.3997192 -1.5905304q-1.4371948 -0.21456909 -2.5725098 0.6112213q-1.1174927 0.8126526 -1.467102 2.403473zm17.664978 14.959869l0.90527344 -6.0261383q-0.58117676 0.60835266 -1.5316772 0.94039917q-0.94818115 0.31658936 -1.9217529 0.17123413q-2.194458 -0.32762146 -3.5238647 -2.3112946q-1.3116455 -1.9968109 -0.8543701 -5.0407715q0.27856445 -1.8542023 1.1326904 -3.2275085q0.8695679 -1.3710022 2.2041626 -1.9458618q1.352356 -0.5880127 2.8049927 -0.37113953q2.2871704 0.34146118 3.310608 2.4690247l0.24835205 -1.6533203l1.869873 0.27915955l-2.5580444 17.02768l-2.0862427 -0.3114624zm-4.789917 -11.868622q-0.3574829 2.379547 0.45281982 3.71698q0.8257446 1.3397369 2.2165527 1.5473785q1.3290405 0.1984253 2.456665 -0.786499q1.1430054 -0.98262024 1.4912109 -3.300354q0.3690796 -2.4568176 -0.46514893 -3.8452148q-0.83428955 -1.3883972 -2.1942139 -1.5914307q-1.3599243 -0.20303345 -2.4766846 0.815094q-1.1144409 1.0026855 -1.4812012 3.444046zm18.915588 9.159073l0.27160645 -1.8078308q-1.7505493 1.8713989 -4.2077026 1.5045624q-1.097229 -0.16381836 -1.9772339 -0.7217407q-0.8800049 -0.5579376 -1.2484131 -1.2606659q-0.35302734 -0.7004242 -0.40148926 -1.6397552q-0.04626465 -0.63882446 0.15338135 -1.9676666l1.1467285 -7.6331024l2.0862427 0.3114624l-1.026001 6.8296204q-0.24603271 1.6378632 -0.1928711 2.2303467q0.062438965 0.84661865 0.6240845 1.4202118q0.57940674 0.5604553 1.5220947 0.70118713q0.92718506 0.13842773 1.8182373 -0.21829224q0.90875244 -0.3698578 1.3717651 -1.1380463q0.46533203 -0.7836304 0.7020874 -2.3596802l0.99121094 -6.5978546l2.0862427 0.31147766l-1.8500366 12.314941l-1.8699341 -0.2791748zm14.168823 -1.9447937l2.1062622 0.5988159q-0.79315186 1.8089752 -2.326355 2.6543427q-1.5309448 0.8299103 -3.679016 0.5092163q-2.7044067 -0.40374756 -4.0477295 -2.2947083q-1.3255615 -1.9041138 -0.8729248 -4.9171753q0.46655273 -3.105774 2.315979 -4.583267q1.8648071 -1.475174 4.414673 -1.0944977q2.4725952 0.36914062 3.7803955 2.2863922q1.3233032 1.9195557 0.8659668 4.9635315q-0.027832031 0.1854248 -0.09899902 0.5539551l-9.179504 -1.3704681q-0.19592285 2.0403137 0.67700195 3.2765045q0.8729248 1.236206 2.418274 1.466919q1.1435547 0.17073059 2.0377197 -0.31192017q0.9095459 -0.48033142 1.5882568 -1.7376404zm-6.3554077 -4.3928375l6.876892 1.0266876q0.09307861 -1.565918 -0.43762207 -2.4508514q-0.8079834 -1.35289 -2.3997192 -1.5905304q-1.4371948 -0.21456909 -2.5724487 0.6112213q-1.1174927 0.8126526 -1.467102 2.403473zm10.2404175 5.2730103l2.1195679 -0.015319824q-0.01574707 1.2615051 0.6726074 2.0435944q0.70373535 0.7843933 2.1254883 0.99664307q1.4371948 0.21456909 2.2208252 -0.2687683q0.7836304 -0.4833374 0.9020386 -1.2713776q0.10675049 -0.71076965 -0.4510498 -1.2047882q-0.37542725 -0.34042358 -2.0258179 -1.0291748q-2.201294 -0.91316223 -3.034912 -1.4641724q-0.81585693 -0.5641632 -1.1680298 -1.3750458q-0.33441162 -0.82403564 -0.1998291 -1.7202301q0.123046875 -0.8189392 0.5983887 -1.4588928q0.49316406 -0.65309143 1.211853 -1.0197449q0.53240967 -0.28385925 1.4040527 -0.40649414q0.88946533 -0.13578796 1.8475952 0.007247925q1.4526367 0.21688843 2.4871826 0.7978821q1.0345459 0.5810089 1.4354248 1.3833618q0.41864014 0.7892151 0.4407959 2.0089874l-2.081665 -0.026412964q0.0048217773 -0.97875977 -0.5807495 -1.6033325q-0.583313 -0.64001465 -1.8041382 -0.8222809q-1.4371948 -0.21456909 -2.1273193 0.17214966q-0.6901245 0.38671875 -0.7852783 1.0202332q-0.06036377 0.4017334 0.15362549 0.7654419q0.19616699 0.3768463 0.72003174 0.676239q0.29052734 0.16975403 1.7577515 0.8153534q2.121643 0.91708374 2.929016 1.4325867q0.8251953 0.5023346 1.2105713 1.3023987q0.40319824 0.786911 0.24304199 1.8530731q-0.15551758 1.0352478 -0.91296387 1.8700714q-0.74194336 0.8371124 -1.9621582 1.1762848q-1.2178345 0.3237152 -2.6704712 0.10684204q-2.3953247 -0.35760498 -3.513977 -1.5356903q-1.1008911 -1.1912384 -1.161499 -3.206665zm16.990234 4.3849487l0.032836914 1.8848877q-0.9110718 0.0693512 -1.6064453 -0.034469604q-1.1436157 -0.17073059 -1.7238159 -0.6207123q-0.56243896 -0.4631195 -0.7369385 -1.089508q-0.15905762 -0.6240692 0.12182617 -2.4937134l1.0654907 -7.0923004l-1.5299683 -0.22840881l0.24377441 -1.6224213l1.5299072 0.22840881l0.4572754 -3.0439606l2.25885 -0.9424286l-0.6453247 4.2955627l2.1016846 0.31376648l-0.24371338 1.6224213l-2.1016846 -0.31378174l-1.0817261 7.2004547q-0.13464355 0.89619446 -0.06591797 1.1750336q0.08648682 0.26567078 0.31048584 0.45710754q0.2263794 0.17597961 0.69000244 0.24519348q0.33996582 0.05076599 0.9234009 0.05886841z" fill-rule="nonzero"></path><path fill="#ffffff" d="m742.80634 209.13524l2.5534058 -16.99678l7.526001 1.1235962q2.2716675 0.33914185 3.3765259 0.9780426q1.1203003 0.64120483 1.6570435 1.9062042q0.5368042 1.2649994 0.32788086 2.6556396q-0.27160645 1.8078461 -1.6340942 2.884079q-1.3601685 1.060791 -3.8529663 1.0361938q0.8336792 0.55101013 1.2346191 1.0374146q0.8520508 1.0592957 1.5286255 2.5505524l2.2576294 5.0606995l-2.828064 -0.4222107l-1.7246704 -3.8752594q-0.7437744 -1.6750641 -1.2720947 -2.5754547q-0.5105591 -0.91352844 -0.97180176 -1.314148q-0.44580078 -0.39831543 -0.9526367 -0.6003723q-0.37475586 -0.13493347 -1.2401733 -0.26412964l-2.6116333 -0.3899231l-1.1328125 7.54039l-2.2407837 -0.3345337zm3.6660767 -9.152756l4.836975 0.7221527q1.5454102 0.23071289 2.4595337 0.03543091q0.9141846 -0.19528198 1.4667969 -0.82369995q0.5680542 -0.6261139 0.6934204 -1.460495q0.18103027 -1.2052307 -0.58374023 -2.109314q-0.7493286 -0.9017792 -2.6501465 -1.1855621l-5.3779297 -0.8029022l-0.84490967 5.6243896zm22.201172 8.954483l2.1063232 0.5988312q-0.79315186 1.80896 -2.326416 2.6543274q-1.5308838 0.82992554 -3.678955 0.50923157q-2.7044067 -0.40376282 -4.0477905 -2.2947235q-1.3255615 -1.9040985 -0.8729248 -4.9171753q0.46661377 -3.105774 2.315979 -4.583267q1.8648682 -1.475174 4.414734 -1.0944977q2.4725952 0.36915588 3.7803955 2.2863922q1.3232422 1.9195709 0.8659668 4.9635315q-0.027832031 0.1854248 -0.09899902 0.5539551l-9.179565 -1.3704529q-0.19586182 2.0402985 0.67700195 3.2765045q0.8729248 1.2361908 2.418335 1.4669037q1.1435547 0.17073059 2.0376587 -0.3119049q0.90960693 -0.48033142 1.5882568 -1.7376556zm-6.3554077 -4.3928375l6.876953 1.0266876q0.09301758 -1.565918 -0.43762207 -2.4508514q-0.8079834 -1.35289 -2.3997192 -1.5905304q-1.4371948 -0.21456909 -2.5725098 0.6112366q-1.1174927 0.8126373 -1.467102 2.4034576zm17.664978 14.959869l0.90527344 -6.026123q-0.58117676 0.6083374 -1.5316772 0.9403839q-0.94818115 0.31658936 -1.9217529 0.17123413q-2.194458 -0.32762146 -3.5238647 -2.3112793q-1.3116455 -1.9968262 -0.8543701 -5.0407867q0.27856445 -1.8542023 1.1326904 -3.2275085q0.8695679 -1.3710022 2.2041626 -1.9458618q1.352356 -0.5880127 2.8049927 -0.37113953q2.2871704 0.34146118 3.310608 2.4690247l0.24835205 -1.6533203l1.869873 0.27915955l-2.5580444 17.02768l-2.0862427 -0.3114624zm-4.789917 -11.868622q-0.3574829 2.379547 0.45281982 3.71698q0.8257446 1.3397369 2.2165527 1.5473938q1.3290405 0.19841003 2.456665 -0.7865143q1.1430054 -0.98262024 1.4912109 -3.300354q0.3690796 -2.4568176 -0.46514893 -3.8452148q-0.83428955 -1.3883972 -2.1942139 -1.5914307q-1.3599243 -0.20303345 -2.4766846 0.81510925q-1.1144409 1.0026703 -1.4812012 3.4440308zm18.915588 9.159073l0.27160645 -1.8078308q-1.7505493 1.8713989 -4.2077026 1.5045624q-1.097229 -0.16381836 -1.9772339 -0.7217407q-0.8800049 -0.5579376 -1.2484131 -1.2606659q-0.35302734 -0.7004242 -0.40148926 -1.6397552q-0.04626465 -0.63882446 0.15338135 -1.9676666l1.1467285 -7.6331024l2.0862427 0.31147766l-1.026001 6.829605q-0.24603271 1.6378784 -0.1928711 2.2303467q0.062438965 0.84661865 0.6240845 1.4202118q0.57940674 0.5604553 1.5220947 0.70118713q0.92718506 0.13842773 1.8182373 -0.21829224q0.90875244 -0.3698578 1.3717651 -1.138031q0.46533203 -0.7836304 0.7020874 -2.3596954l0.99121094 -6.5978394l2.0862427 0.3114624l-1.8500366 12.314941l-1.8699341 -0.2791748zm14.168823 -1.9447937l2.1062622 0.5988312q-0.79315186 1.80896 -2.326355 2.6543274q-1.5309448 0.82992554 -3.679016 0.50923157q-2.7044067 -0.40376282 -4.0477295 -2.2947235q-1.3255615 -1.9040985 -0.8729248 -4.9171753q0.46655273 -3.105774 2.315979 -4.583267q1.8648071 -1.475174 4.414673 -1.0944977q2.4725952 0.36915588 3.7803955 2.2863922q1.3233032 1.9195709 0.8659668 4.9635315q-0.027832031 0.1854248 -0.09899902 0.5539551l-9.179504 -1.3704529q-0.19592285 2.0402985 0.67700195 3.2765045q0.8729248 1.2361908 2.418274 1.4669037q1.1435547 0.17073059 2.0377197 -0.3119049q0.9095459 -0.48033142 1.5882568 -1.7376556zm-6.3554077 -4.3928375l6.876892 1.0266876q0.09307861 -1.565918 -0.43762207 -2.4508514q-0.8079834 -1.35289 -2.3997192 -1.5905304q-1.4371948 -0.21456909 -2.5724487 0.6112366q-1.1174927 0.8126373 -1.467102 2.4034576zm10.2404175 5.2730103l2.1195679 -0.015319824q-0.01574707 1.2615051 0.6726074 2.0435944q0.70373535 0.7843933 2.1254883 0.9966583q1.4371948 0.21455383 2.2208252 -0.26878357q0.7836304 -0.4833374 0.9020386 -1.2713623q0.10675049 -0.7107849 -0.4510498 -1.2048035q-0.37542725 -0.34042358 -2.0258179 -1.0291748q-2.201294 -0.91316223 -3.034912 -1.4641724q-0.81585693 -0.56414795 -1.1680298 -1.3750458q-0.33441162 -0.82403564 -0.1998291 -1.7202301q0.123046875 -0.8189392 0.5983887 -1.4588928q0.49316406 -0.65309143 1.211853 -1.0197449q0.53240967 -0.28385925 1.4040527 -0.40649414q0.88946533 -0.13578796 1.8475952 0.0072631836q1.4526367 0.21687317 2.4871826 0.7978668q1.0345459 0.5810089 1.4354248 1.3833618q0.41864014 0.78923035 0.4407959 2.0089874l-2.081665 -0.026412964q0.0048217773 -0.97875977 -0.5807495 -1.6033325q-0.583313 -0.64001465 -1.8041382 -0.8222809q-1.4371948 -0.21455383 -2.1273193 0.17214966q-0.6901245 0.38671875 -0.7852783 1.0202332q-0.06036377 0.40174866 0.15362549 0.7654419q0.19616699 0.37686157 0.72003174 0.676239q0.29052734 0.16975403 1.7577515 0.8153534q2.121643 0.91708374 2.929016 1.4325867q0.8251953 0.50234985 1.2105713 1.3023987q0.40319824 0.786911 0.24304199 1.8530731q-0.15551758 1.0352631 -0.91296387 1.8700714q-0.74194336 0.8371124 -1.9621582 1.1762848q-1.2178345 0.32373047 -2.6704712 0.10684204q-2.3953247 -0.35760498 -3.513977 -1.5356903q-1.1008911 -1.1912384 -1.161499 -3.206665zm16.990234 4.3849487l0.032836914 1.8848877q-0.9110718 0.069366455 -1.6064453 -0.034469604q-1.1436157 -0.17071533 -1.7238159 -0.620697q-0.56243896 -0.46313477 -0.7369385 -1.089508q-0.15905762 -0.6240845 0.12182617 -2.4937286l1.0654907 -7.092285l-1.5299683 -0.22842407l0.24377441 -1.622406l1.5299072 0.22840881l0.4572754 -3.0439758l2.25885 -0.94241333l-0.6453247 4.2955475l2.1016846 0.31376648l-0.24371338 1.6224213l-2.1016846 -0.31376648l-1.0817261 7.2004547q-0.13464355 0.89619446 -0.06591797 1.1750183q0.08648682 0.26568604 0.31048584 0.45710754q0.2263794 0.17597961 0.69000244 0.24519348q0.33996582 0.05076599 0.9234009 0.05886841z" fill-rule="nonzero"></path><path fill="#ffffff" d="m233.20045 294.94937l-2.2900238 -17.034271l7.541336 -1.0152588q2.2763367 -0.30648804 3.5156708 -3.3569336E-4q1.2548218 0.30404663 2.123291 1.3695679q0.868454 1.0655212 1.0558319 2.4592285q0.24357605 1.8118286 -0.76467896 3.2246094q-1.0103302 1.3973083 -3.411209 2.0673828q0.95436096 0.29718018 1.4751282 0.652771q1.1138763 0.7802124 2.1797485 2.0241394l3.5801697 4.232025l-2.8338165 0.38150024l-2.7375946 -3.2418213q-1.1816711 -1.4017639 -1.9403229 -2.1194458q-0.745224 -0.73526 -1.2999573 -0.9916687q-0.5392456 -0.2584839 -1.0824127 -0.31149292q-0.39753723 -0.02532959 -1.2647095 0.091430664l-2.6170197 0.35232544l1.0159454 7.557007l-2.2453766 0.30230713zm0.9671173 -9.810516l4.8468933 -0.65252686q1.5485382 -0.20846558 2.371994 -0.65042114q0.8234558 -0.44195557 1.1788483 -1.1992493q0.37088013 -0.7593994 0.25845337 -1.5956421q-0.16238403 -1.2078857 -1.1491394 -1.8633423q-0.9712677 -0.65753174 -2.8759613 -0.40109253l-5.3888855 0.7254944l0.75779724 5.63678zm23.82019 2.4216003l2.189911 -0.011047363q-0.25701904 1.9580383 -1.4936523 3.1966248q-1.2387085 1.2230835 -3.391159 1.5128479q-2.7099152 0.36483765 -4.527664 -1.0773926q-1.8043365 -1.4598083 -2.2102966 -4.4795227q-0.41845703 -3.1126099 0.9454498 -5.0462646q1.3793793 -1.93573 3.9344482 -2.2797241q2.4776459 -0.33355713 4.2686005 1.1438293q1.8063965 1.4753113 2.2165222 4.5259705q0.024993896 0.18582153 0.05947876 0.5595703l-9.198273 1.2383423q0.38111877 2.014038 1.5643616 2.958374q1.1832428 0.9443054 2.731781 0.73583984q1.1459045 -0.15429688 1.8699646 -0.8666382q0.73950195 -0.7144165 1.0405273 -2.1108093zm-7.329315 -2.4502563l6.8909607 -0.9277344q-0.3475647 -1.5297852 -1.104126 -2.2319946q-1.1534424 -1.0744629 -2.7484283 -0.8597412q-1.4401245 0.19387817 -2.3000336 1.3029175q-0.8464966 1.0914307 -0.7383728 2.7165527zm13.272644 10.510559l-2.2941895 -17.065216l1.9046936 -0.2564087l0.2164917 1.6105042q0.5543823 -1.036377 1.328125 -1.6135254q0.7871399 -0.59469604 1.9949951 -0.7573242q1.5794983 -0.21264648 2.897705 0.4454956q1.3161011 0.64263916 2.135376 2.045868q0.8192749 1.4032593 1.0566101 3.1686096q0.2539673 1.8892517 -0.22335815 3.4985962q-0.47732544 1.609314 -1.6698303 2.5896912q-1.1770325 0.978302 -2.6016846 1.170105q-1.0529785 0.14175415 -1.9474792 -0.17926025q-0.8811035 -0.33859253 -1.514679 -0.9470215l0.80773926 6.0084534l-2.0905151 0.2814331zm0.4494934 -11.080902q0.32058716 2.3847961 1.4347534 3.4014893q1.1120605 1.0011902 2.4902344 0.8156433q1.3936768 -0.18762207 2.226532 -1.4979553q0.8328247 -1.3103333 0.49972534 -3.7880554q-0.31643677 -2.3538208 -1.4502258 -3.3993835q-1.1183167 -1.0476685 -2.4655457 -0.8663025q-1.3471985 0.18136597 -2.2006226 1.5733032q-0.85546875 1.3764648 -0.5348511 3.761261zm12.097412 4.58313l-2.290039 -17.03424l2.0905151 -0.28146362l2.290039 17.034271l-2.0905151 0.2814331zm5.877014 4.04895l-0.49667358 -1.9354248q0.7218323 0.0920105 1.2328491 0.023223877q0.6968384 -0.093811035 1.0837097 -0.38238525q0.38687134 -0.28857422 0.5939026 -0.74212646q0.15969849 -0.3368225 0.4267273 -1.6340637q0.036956787 -0.19415283 0.117126465 -0.53604126l-6.339966 -11.743469l2.2453613 -0.3022766l3.5323792 6.808319q0.67666626 1.2805481 1.2812195 2.7284546q0.16253662 -1.4881287 0.47485352 -2.917572l1.6799316 -7.5573425l2.0905151 -0.2814331l-3.003662 13.190552q-0.48605347 2.1307983 -0.80215454 2.9458618q-0.41796875 1.1126099 -1.0812378 1.6906433q-0.64779663 0.57595825 -1.6543274 0.7114563q-0.6039429 0.081329346 -1.3805542 -0.06637573z" fill-rule="nonzero"></path><path fill="#ffffff" d="m244.11209 609.79614l-2.290039 -17.03424l7.541336 -1.0152588q2.2763367 -0.30651855 3.5156708 -3.6621094E-4q1.2548218 0.30407715 2.123291 1.3695679q0.86846924 1.0655518 1.0558167 2.4592285q0.24359131 1.8118286 -0.7646637 3.2246094q-1.0103302 1.3973389 -3.411209 2.0673828q0.95436096 0.29718018 1.4751282 0.652771q1.1138916 0.7802124 2.1797485 2.02417l3.5801697 4.2319946l-2.8338013 0.38153076l-2.7376099 -3.2418213q-1.1816711 -1.4017944 -1.9403076 -2.1194458q-0.74523926 -0.7352905 -1.2999725 -0.9916992q-0.5392456 -0.2584839 -1.0824127 -0.3114624q-0.39753723 -0.02532959 -1.2647095 0.091430664l-2.6170197 0.35229492l1.0159454 7.557007l-2.2453613 0.30230713zm0.96710205 -9.810486l4.8468933 -0.65252686q1.5485382 -0.2084961 2.371994 -0.65045166q0.8234558 -0.44195557 1.1788483 -1.1992188q0.37088013 -0.7593994 0.25845337 -1.5956421q-0.16238403 -1.2078857 -1.1491394 -1.8633423q-0.9712677 -0.65753174 -2.8759613 -0.40112305l-5.3888855 0.7255249l0.75779724 5.63678zm23.82019 2.4215698l2.189911 -0.011047363q-0.25701904 1.9580688 -1.4936523 3.1966553q-1.2387085 1.2230835 -3.3911438 1.5128174q-2.7099304 0.36486816 -4.5276794 -1.0773926q-1.8043518 -1.4597778 -2.2102966 -4.479492q-0.41845703 -3.1126099 0.9454346 -5.0462646q1.3793945 -1.93573 3.9344788 -2.2797241q2.4776306 -0.33355713 4.268585 1.1437988q1.8063965 1.4753418 2.2165222 4.526001q0.024993896 0.18579102 0.05947876 0.5595703l-9.198273 1.2383423q0.38113403 2.014038 1.5643616 2.958374q1.183258 0.9442749 2.731781 0.73583984q1.1459045 -0.15429688 1.8699646 -0.8666382q0.73950195 -0.7144165 1.0405273 -2.1108398zm-7.329315 -2.4502563l6.8909607 -0.9277344q-0.3475647 -1.5297852 -1.104126 -2.2319946q-1.1534424 -1.0744629 -2.748413 -0.8597412q-1.4401245 0.19390869 -2.3000488 1.3029175q-0.8464966 1.0914307 -0.7383728 2.7165527zm13.272644 10.51062l-2.2941895 -17.065247l1.9046936 -0.2564087l0.2164917 1.6104736q0.5543823 -1.036377 1.328125 -1.6135254q0.7871399 -0.5946655 1.9949951 -0.7573242q1.5794983 -0.21264648 2.897705 0.4454956q1.3161011 0.64263916 2.135376 2.0458984q0.8192749 1.4032593 1.0566101 3.168579q0.2539673 1.8892822 -0.22335815 3.4985962q-0.47732544 1.609314 -1.6698303 2.5897217q-1.1770325 0.9782715 -2.6016846 1.170105q-1.0529785 0.14172363 -1.9474792 -0.17926025q-0.8811035 -0.33862305 -1.514679 -0.9470215l0.80773926 6.008423l-2.0905151 0.28149414zm0.4494934 -11.080933q0.32058716 2.3847656 1.4347534 3.4014893q1.1120605 1.0011597 2.4902344 0.8156128q1.3936768 -0.18762207 2.226532 -1.4979248q0.8328247 -1.3103638 0.49972534 -3.788086q-0.31643677 -2.3538208 -1.4502258 -3.399353q-1.1183167 -1.0476685 -2.4655457 -0.866333q-1.3471985 0.18139648 -2.200592 1.5733032q-0.85549927 1.3764648 -0.5348816 3.7612915zm12.097412 4.58313l-2.290039 -17.03424l2.0905151 -0.28149414l2.290039 17.034302l-2.0905151 0.2814331zm5.877014 4.04895l-0.49667358 -1.9354248q0.7218323 0.09197998 1.2328491 0.02319336q0.6968384 -0.093811035 1.0837097 -0.38238525q0.38687134 -0.28857422 0.5939026 -0.74212646q0.15969849 -0.336792 0.4267273 -1.6340332q0.036956787 -0.19415283 0.117126465 -0.5360718l-6.339966 -11.743469l2.2453613 -0.3022461l3.5323792 6.8082886q0.67666626 1.2805786 1.2812195 2.7284546q0.16253662 -1.4880981 0.47485352 -2.9175415l1.6799316 -7.557373l2.0905151 -0.2814331l-3.003662 13.190552q-0.48605347 2.1307983 -0.80215454 2.9459229q-0.41796875 1.1125488 -1.0812378 1.6906128q-0.64779663 0.57592773 -1.6543274 0.7114258q-0.6039429 0.08135986 -1.3805542 -0.066345215z" fill-rule="nonzero"></path><path fill="#ffffff" d="m228.07147 407.16544l2.5534058 -16.996796l7.5259705 1.1235962q2.271698 0.33914185 3.3765411 0.97805786q1.1203003 0.6411743 1.657074 1.906189q0.5367737 1.2650146 0.3278656 2.6556396q-0.2715912 1.8078308 -1.6341095 2.8840942q-1.3601837 1.0607605 -3.8529358 1.0361633q0.8336334 0.5510254 1.2345734 1.0374146q0.8520813 1.0593262 1.5286713 2.5505676l2.2575989 5.0606995l-2.8280334 -0.4222107l-1.7246704 -3.8752747q-0.7437744 -1.6750488 -1.2721252 -2.5754395q-0.51057434 -0.9135132 -0.97180176 -1.314148q-0.44577026 -0.39831543 -0.95262146 -0.6003723q-0.3747406 -0.13491821 -1.2401428 -0.26412964l-2.611679 -0.3899231l-1.1327972 7.5404053l-2.2407837 -0.3345337zm3.6660614 -9.152771l4.8370056 0.72213745q1.5453796 0.23071289 2.4595337 0.03543091q0.91415405 -0.19528198 1.4667664 -0.82366943q0.56806946 -0.62612915 0.6934204 -1.4605103q0.18106079 -1.2052307 -0.58374023 -2.109314q-0.7493439 -0.90179443 -2.6501465 -1.1855774l-5.377899 -0.80288696l-0.8449402 5.6243896zm22.201218 8.954498l2.1062927 0.5988159q-0.7931824 1.80896 -2.326416 2.6543274q-1.530899 0.82992554 -3.6789703 0.5092163q-2.7044067 -0.40374756 -4.04776 -2.2947083q-1.3255768 -1.9041138 -0.8729248 -4.9171753q0.466568 -3.105774 2.3159637 -4.583252q1.8648529 -1.4751892 4.4147186 -1.0945129q2.4725952 0.36914062 3.7804108 2.2864075q1.3232422 1.9195557 0.8659668 4.9635315q-0.027862549 0.18539429 -0.09902954 0.55392456l-9.179504 -1.3704529q-0.19592285 2.0403137 0.6769867 3.2765198q0.87290955 1.2361755 2.4182892 1.466919q1.14357 0.17071533 2.0376892 -0.31192017q0.9095917 -0.48034668 1.5882874 -1.7376404zm-6.355423 -4.392853l6.8769073 1.0267029q0.093048096 -1.5659485 -0.43762207 -2.4508667q-0.8079834 -1.3528748 -2.3997192 -1.5905151q-1.4371948 -0.21456909 -2.572464 0.61120605q-1.1175079 0.8126526 -1.467102 2.403473zm17.664963 14.959869l0.90530396 -6.026123q-0.5812073 0.6083374 -1.5317078 0.94039917q-0.94818115 0.31658936 -1.9217834 0.17123413q-2.1944275 -0.32763672 -3.5238342 -2.3113098q-1.311676 -1.9967957 -0.8543701 -5.0407715q0.27856445 -1.854187 1.1326904 -3.2275085q0.8695679 -1.3710022 2.2041626 -1.9458618q1.352356 -0.5880127 2.8049927 -0.37112427q2.2871704 0.34146118 3.3105774 2.4690247l0.24838257 -1.6533508l1.8699036 0.2791748l-2.558075 17.02768l-2.0862427 -0.3114624zm-4.789917 -11.868622q-0.3574829 2.379547 0.45281982 3.71698q0.8257446 1.3397522 2.2165833 1.5473938q1.32901 0.1984253 2.456604 -0.786499q1.1430359 -0.9826355 1.4912415 -3.3003845q0.3690796 -2.456787 -0.46517944 -3.8451843q-0.8342285 -1.3884277 -2.1941528 -1.5914307q-1.3599243 -0.20303345 -2.476715 0.815094q-1.1144409 1.0026855 -1.4812012 3.4440308zm18.915588 9.159088l0.27160645 -1.8078613q-1.7505798 1.8714294 -4.2077026 1.5045776q-1.097229 -0.16381836 -1.9772339 -0.7217407q-0.8800049 -0.55792236 -1.2484436 -1.2606506q-0.3529663 -0.70043945 -0.40145874 -1.6397705q-0.04623413 -0.63882446 0.15338135 -1.9676514l1.1467285 -7.6331177l2.0862427 0.3114624l-1.026001 6.8296204q-0.24606323 1.6378784 -0.1928711 2.2303467q0.062438965 0.84661865 0.6240845 1.420227q0.57940674 0.5604553 1.5220947 0.7011719q0.9272156 0.13842773 1.8182068 -0.21829224q0.90878296 -0.36984253 1.3717957 -1.138031q0.46533203 -0.7836304 0.7021179 -2.3597107l0.9911804 -6.5978394l2.0862427 0.31149292l-1.8500671 12.314911l-1.8699036 -0.2791443zm14.168823 -1.9447937l2.1062927 0.5988159q-0.7931824 1.80896 -2.326416 2.6543274q-1.5309143 0.82992554 -3.6789856 0.5092163q-2.7043762 -0.40374756 -4.0477295 -2.2947083q-1.325592 -1.9041138 -0.8729553 -4.9171753q0.46658325 -3.105774 2.315979 -4.583252q1.8648682 -1.4751892 4.414734 -1.0945129q2.4725952 0.36914062 3.7803955 2.2864075q1.3232422 1.9195557 0.8659668 4.9635315q-0.027862549 0.18539429 -0.09902954 0.55392456l-9.179504 -1.3704529q-0.19592285 2.0403137 0.67700195 3.2765198q0.8728943 1.2361755 2.418274 1.466919q1.1435852 0.17071533 2.0376892 -0.31192017q0.9095764 -0.48034668 1.5882874 -1.7376404zm-6.3554077 -4.392853l6.876892 1.0267029q0.093048096 -1.5659485 -0.43762207 -2.4508667q-0.8079834 -1.3528748 -2.3997192 -1.5905151q-1.4371948 -0.21456909 -2.5724792 0.61120605q-1.1174927 0.8126526 -1.4670715 2.403473zm10.2404175 5.2730103l2.1195374 -0.015319824q-0.015716553 1.2615051 0.6726074 2.0436096q0.7037964 0.7843933 2.1255188 0.99664307q1.4371948 0.21456909 2.2208252 -0.2687683q0.7836304 -0.4833374 0.90200806 -1.2713928q0.106781006 -0.7107544 -0.4510193 -1.2048035q-0.37545776 -0.34042358 -2.0258179 -1.0291443q-2.2012634 -0.9131775 -3.034912 -1.4641724q-0.81585693 -0.56417847 -1.1680603 -1.375061q-0.33441162 -0.82403564 -0.19976807 -1.7202148q0.12301636 -0.8189392 0.59835815 -1.4588928q0.49313354 -0.6531067 1.2118225 -1.0197449q0.5324707 -0.2838745 1.4041138 -0.40652466q0.8894043 -0.1357727 1.8475342 0.0072631836q1.4526672 0.21688843 2.4871826 0.7978821q1.0345459 0.58102417 1.4354248 1.3833618q0.41864014 0.7892151 0.4407959 2.0090027l-2.081665 -0.026428223q0.0048217773 -0.97875977 -0.5807495 -1.6033325q-0.5832825 -0.64001465 -1.8041077 -0.8222656q-1.4371948 -0.21456909 -2.1273193 0.17214966q-0.690094 0.38671875 -0.7852783 1.0202332q-0.060333252 0.4017334 0.15362549 0.7654419q0.19619751 0.37683105 0.72003174 0.676239q0.29049683 0.16973877 1.7577515 0.81533813q2.1216736 0.91708374 2.9290466 1.4325867q0.8251343 0.50234985 1.2105713 1.3023987q0.40316772 0.78692627 0.24301147 1.8530884q-0.15551758 1.0352478 -0.91296387 1.8700562q-0.74194336 0.8371277 -1.9621277 1.1763q-1.217865 0.32369995 -2.6705017 0.10684204q-2.3953552 -0.35760498 -3.513977 -1.5357056q-1.1008606 -1.1912231 -1.161499 -3.206665zm16.990204 4.3849487l0.032836914 1.8848877q-0.91104126 0.069366455 -1.6064453 -0.034454346q-1.1435852 -0.17074585 -1.7237854 -0.62072754q-0.56243896 -0.46310425 -0.7369385 -1.089508q-0.15905762 -0.62405396 0.12182617 -2.4937134l1.0654602 -7.092285l-1.5299072 -0.22842407l0.24371338 -1.622406l1.5299377 0.22839355l0.4572754 -3.0439453l2.2588196 -0.94244385l-0.6452942 4.2955627l2.1016846 0.31378174l-0.24371338 1.622406l-2.101715 -0.31378174l-1.0817261 7.20047q-0.13461304 0.8961792 -0.06591797 1.1750183q0.08648682 0.26568604 0.31054688 0.4571228q0.22634888 0.17596436 0.6899719 0.24517822q0.33999634 0.050750732 0.92337036 0.05886841z" fill-rule="nonzero"></path><path fill="#ffffff" d="m746.1873 315.95724l-2.290039 -17.034271l7.541382 -1.0152588q2.2763062 -0.30645752 3.515686 -3.3569336E-4q1.2548218 0.30404663 2.12323 1.3695679q0.86846924 1.0655212 1.0558472 2.4592285q0.24359131 1.8118286 -0.76464844 3.2246094q-1.010376 1.3973083 -3.411255 2.0673828q0.95440674 0.29718018 1.4751587 0.652771q1.1138916 0.7802124 2.1797485 2.0241394l3.5801392 4.232025l-2.8338013 0.38150024l-2.7376099 -3.2418213q-1.1816406 -1.4017639 -1.9403076 -2.1194458q-0.74523926 -0.73526 -1.2999268 -0.9916687q-0.5392456 -0.2584839 -1.0823975 -0.31149292q-0.397583 -0.02532959 -1.2647705 0.091430664l-2.6170044 0.35232544l1.0159302 7.557007l-2.2453613 0.30230713zm0.9671631 -9.810516l4.846863 -0.65252686q1.548523 -0.20846558 2.3720093 -0.65042114q0.8234253 -0.44195557 1.178833 -1.1992493q0.3708496 -0.7593994 0.2584839 -1.5956421q-0.16241455 -1.2078857 -1.1491699 -1.8633423q-0.97125244 -0.65753174 -2.8759766 -0.40109253l-5.388855 0.7254944l0.7578125 5.63678zm23.82013 2.4216003l2.1899414 -0.011047363q-0.25701904 1.9580383 -1.4936523 3.1966248q-1.2387085 1.2230835 -3.3911743 1.5128479q-2.7099 0.36483765 -4.527649 -1.0773926q-1.8043213 -1.4598083 -2.2103271 -4.4795227q-0.418396 -3.1126099 0.9454956 -5.0462646q1.3793335 -1.93573 3.9344482 -2.2797241q2.4776611 -0.33355713 4.2685547 1.1438293q1.8064575 1.4753113 2.2165527 4.5259705q0.024963379 0.18582153 0.059448242 0.5595703l-9.198242 1.2383423q0.38110352 2.014038 1.5643921 2.958374q1.1832275 0.9443054 2.7317505 0.73583984q1.145935 -0.15426636 1.8699341 -0.8666382q0.739563 -0.7144165 1.0405273 -2.1108093zm-7.3292847 -2.4502563l6.89093 -0.9277344q-0.34753418 -1.5297852 -1.104065 -2.2319946q-1.1534424 -1.0744629 -2.7484741 -0.8597412q-1.4401245 0.19387817 -2.2999878 1.3029175q-0.8464966 1.0914307 -0.7384033 2.7165527zm13.272644 10.510559l-2.2941895 -17.065216l1.9046631 -0.2564087l0.21655273 1.6105042q0.5543213 -1.036377 1.328064 -1.6135254q0.7871704 -0.59469604 1.9950562 -0.7573242q1.5794678 -0.21264648 2.897644 0.4454956q1.3161621 0.64263916 2.135437 2.045868q0.81921387 1.4032593 1.0565796 3.1686096q0.2539673 1.8892517 -0.22332764 3.4985962q-0.47735596 1.609314 -1.6698608 2.5896912q-1.177002 0.978302 -2.6016846 1.170105q-1.0529785 0.14175415 -1.9475098 -0.17926025q-0.8811035 -0.33859253 -1.5146484 -0.9470215l0.80773926 6.0084534l-2.0905151 0.2814331zm0.4494629 -11.080902q0.32061768 2.3847961 1.4347534 3.4014893q1.1120605 1.0011902 2.4902954 0.8156433q1.3936768 -0.18762207 2.2265015 -1.4979553q0.8328247 -1.3103333 0.49975586 -3.7880554q-0.3164673 -2.3538208 -1.4502563 -3.3993835q-1.1182861 -1.0476685 -2.4655151 -0.8663025q-1.347229 0.18136597 -2.2006226 1.5733032q-0.85546875 1.3764648 -0.5349121 3.761261zm12.097412 4.58313l-2.290039 -17.03424l2.0905151 -0.28146362l2.290039 17.034271l-2.0905151 0.2814331zm5.877075 4.04895l-0.4967041 -1.9354248q0.72180176 0.0920105 1.2328491 0.023223877q0.6968384 -0.093811035 1.0836792 -0.38238525q0.38690186 -0.28857422 0.5939331 -0.74212646q0.15966797 -0.3368225 0.42669678 -1.6340637q0.036987305 -0.19415283 0.117126465 -0.53604126l-6.339966 -11.743469l2.2454224 -0.3022766l3.5323486 6.808319q0.67663574 1.2805481 1.281189 2.7284546q0.16259766 -1.4881287 0.47491455 -2.917572l1.6799316 -7.5573425l2.0905151 -0.2814331l-3.003662 13.190552q-0.48608398 2.1307983 -0.80218506 2.9458618q-0.41796875 1.1126099 -1.0812378 1.6906433q-0.64782715 0.57595825 -1.6543579 0.7114563q-0.60388184 0.081329346 -1.3804932 -0.06637573z" fill-rule="nonzero"></path><path fill="#ffffff" d="m758.8469 449.56616l-2.290039 -17.034271l7.541382 -1.0152588q2.2763062 -0.30645752 3.515686 -3.3569336E-4q1.2548218 0.30404663 2.123291 1.3695679q0.8684082 1.0655212 1.0557861 2.4592285q0.24359131 1.8118286 -0.76464844 3.2246094q-1.010376 1.3973083 -3.4111938 2.0673828q0.9543457 0.2972107 1.4750977 0.652771q1.1138916 0.7802429 2.1797485 2.0241394l3.5802002 4.232025l-2.8338623 0.38153076l-2.7375488 -3.2418518q-1.1817017 -1.4017639 -1.9403687 -2.1194458q-0.7451782 -0.73526 -1.2999268 -0.9916687q-0.5392456 -0.2584839 -1.0823975 -0.31149292q-0.397583 -0.025299072 -1.2647095 0.091430664l-2.6170654 0.35232544l1.0159912 7.557007l-2.2454224 0.30230713zm0.9671631 -9.810516l4.846863 -0.65252686q1.548523 -0.20846558 2.3720093 -0.65042114q0.8234253 -0.44192505 1.178833 -1.1992493q0.3708496 -0.7593994 0.2584839 -1.5956421q-0.16241455 -1.2078552 -1.1491699 -1.8633118q-0.97125244 -0.65756226 -2.8759766 -0.40112305l-5.388855 0.7254944l0.7578125 5.63678zm23.82013 2.4216003l2.1899414 -0.011047363q-0.25701904 1.9580383 -1.4936523 3.1966248q-1.2387085 1.2230835 -3.3911743 1.5128784q-2.7099 0.36480713 -4.527649 -1.0774231q-1.8043213 -1.4598083 -2.210266 -4.4795227q-0.41845703 -3.1126099 0.9454346 -5.0462646q1.3793945 -1.93573 3.9344482 -2.2796936q2.4776611 -0.33355713 4.2685547 1.1437988q1.8064575 1.4753113 2.2165527 4.5259705q0.025024414 0.18585205 0.059448242 0.5595703l-9.198242 1.2383728q0.38110352 2.0140076 1.5643921 2.9583435q1.1832275 0.9443054 2.7317505 0.73583984q1.145935 -0.15426636 1.8699341 -0.8666382q0.739563 -0.7144165 1.0405273 -2.1108093zm-7.3292847 -2.4502563l6.89093 -0.92770386q-0.34753418 -1.5298157 -1.104065 -2.2320251q-1.1534424 -1.0744629 -2.7484741 -0.8597412q-1.4401245 0.19387817 -2.2999878 1.3029175q-0.8464966 1.0914612 -0.7384033 2.7165527zm13.272644 10.51059l-2.2941895 -17.065247l1.9046631 -0.2564087l0.21655273 1.6105042q0.5543213 -1.0363464 1.328125 -1.6134949q0.7871094 -0.59472656 1.9949951 -0.7573242q1.5794678 -0.21264648 2.897705 0.4454651q1.3161011 0.64263916 2.135376 2.0458984q0.8192749 1.4032288 1.0565796 3.168579q0.2539673 1.8892822 -0.22332764 3.4985962q-0.47735596 1.609314 -1.6698608 2.5896912q-1.177002 0.978302 -2.6016846 1.170105q-1.0529785 0.14175415 -1.9475098 -0.17926025q-0.8810425 -0.33859253 -1.5146484 -0.94699097l0.80773926 6.008423l-2.0905151 0.28146362zm0.4494629 -11.080933q0.32061768 2.3847961 1.4347534 3.4014893q1.1120605 1.0011902 2.4902954 0.8156433q1.3936768 -0.18762207 2.2265015 -1.4979553q0.8328247 -1.3103333 0.49975586 -3.7880554q-0.3164673 -2.3538208 -1.4502563 -3.3993835q-1.1182861 -1.0476685 -2.4655151 -0.8663025q-1.347229 0.18139648 -2.2006226 1.5733337q-0.85546875 1.3764343 -0.5349121 3.7612305zm12.097412 4.58313l-2.289978 -17.03424l2.0905151 -0.28146362l2.289978 17.034271l-2.0905151 0.2814331zm5.877075 4.04895l-0.4967041 -1.9354248q0.7218628 0.0920105 1.2328491 0.023223877q0.6968384 -0.093811035 1.0837402 -0.38238525q0.38684082 -0.28857422 0.5938721 -0.74212646q0.15966797 -0.3368225 0.4267578 -1.6340332q0.03692627 -0.19418335 0.11706543 -0.53604126l-6.339905 -11.743469l2.2453613 -0.30230713l3.5323486 6.808319q0.67663574 1.2805481 1.281189 2.7284546q0.16259766 -1.4881287 0.47491455 -2.917572l1.6799316 -7.5573425l2.0905151 -0.2814331l-3.003662 13.190582q-0.48608398 2.1307678 -0.80218506 2.9458618q-0.41796875 1.1125793 -1.0812378 1.6906128q-0.6477661 0.57595825 -1.6543579 0.7114868q-0.60388184 0.08129883 -1.3804932 -0.06640625z" fill-rule="nonzero"></path><path fill="#ffffff" d="m766.8469 579.81287l-2.290039 -17.03424l7.541382 -1.0152588q2.2763062 -0.30645752 3.515686 -3.6621094E-4q1.2548218 0.30407715 2.123291 1.3695679q0.8684082 1.0655518 1.0557861 2.4592285q0.24359131 1.8118286 -0.76464844 3.2246094q-1.010376 1.3973389 -3.4111938 2.0673828q0.9543457 0.2972412 1.4750977 0.652771q1.1138916 0.78027344 2.1797485 2.02417l3.5802002 4.2319946l-2.8338623 0.38153076l-2.7375488 -3.2418213q-1.1817017 -1.4017944 -1.9403687 -2.1194458q-0.7451782 -0.7352905 -1.2999268 -0.9916992q-0.5392456 -0.2584839 -1.0823975 -0.3114624q-0.397583 -0.02532959 -1.2647095 0.091430664l-2.6170654 0.35229492l1.0159912 7.557007l-2.2454224 0.30230713zm0.9671631 -9.810486l4.846863 -0.65252686q1.548523 -0.2084961 2.3720093 -0.65045166q0.8234253 -0.44189453 1.178833 -1.1992188q0.3708496 -0.7593994 0.2584839 -1.5956421q-0.16241455 -1.2078857 -1.1491699 -1.8633423q-0.97125244 -0.65753174 -2.8759766 -0.40112305l-5.388855 0.7255249l0.7578125 5.63678zm23.82013 2.4215698l2.1899414 -0.011047363q-0.25701904 1.9580688 -1.4936523 3.1966553q-1.2387085 1.2230835 -3.3911743 1.5128784q-2.7099 0.36480713 -4.527649 -1.0774536q-1.8043213 -1.4597778 -2.210266 -4.479492q-0.41845703 -3.1126099 0.9454346 -5.0462646q1.3793945 -1.93573 3.9344482 -2.2797241q2.4776611 -0.33355713 4.2685547 1.1437988q1.8064575 1.4753418 2.2165527 4.526001q0.025024414 0.18585205 0.059448242 0.5595703l-9.198242 1.2383423q0.38110352 2.014038 1.5643921 2.958374q1.1832275 0.9442749 2.7317505 0.73583984q1.145935 -0.15429688 1.8699341 -0.8666382q0.739563 -0.7144165 1.0405273 -2.1108398zm-7.3292847 -2.4502563l6.89093 -0.92767334q-0.34753418 -1.5298462 -1.104065 -2.2320557q-1.1534424 -1.0744629 -2.7484741 -0.8597412q-1.4401245 0.19390869 -2.2999878 1.3029175q-0.8464966 1.0914917 -0.7384033 2.7165527zm13.272644 10.51062l-2.2941895 -17.065247l1.9046631 -0.2564087l0.21655273 1.6104736q0.5543213 -1.0363159 1.328125 -1.6134644q0.7871094 -0.59472656 1.9949951 -0.7573242q1.5794678 -0.21264648 2.897705 0.44543457q1.3161011 0.64263916 2.135376 2.0458984q0.8192749 1.4032593 1.0565796 3.168579q0.2539673 1.8892822 -0.22332764 3.4985962q-0.47735596 1.609314 -1.6698608 2.5897217q-1.177002 0.9782715 -2.6016846 1.170105q-1.0529785 0.14172363 -1.9475098 -0.17926025q-0.8810425 -0.33862305 -1.5146484 -0.9470215l0.80773926 6.008423l-2.0905151 0.28149414zm0.4494629 -11.080933q0.32061768 2.3847656 1.4347534 3.4014893q1.1120605 1.0011597 2.4902954 0.8156128q1.3936768 -0.18762207 2.2265015 -1.4979248q0.8328247 -1.3103638 0.49975586 -3.788086q-0.3164673 -2.3538208 -1.4502563 -3.399353q-1.1182861 -1.0476685 -2.4655151 -0.866333q-1.347229 0.18139648 -2.2006226 1.5733643q-0.85546875 1.3764038 -0.5349121 3.7612305zm12.097412 4.58313l-2.289978 -17.03424l2.0905151 -0.28149414l2.289978 17.034302l-2.0905151 0.2814331zm5.877075 4.04895l-0.4967041 -1.9354248q0.7218628 0.09197998 1.2328491 0.02319336q0.6968384 -0.093811035 1.0837402 -0.38238525q0.38684082 -0.28857422 0.5938721 -0.74212646q0.15966797 -0.336792 0.4267578 -1.6340332q0.03692627 -0.19415283 0.11706543 -0.53601074l-6.339905 -11.743469l2.2453613 -0.30230713l3.5323486 6.8082886q0.67663574 1.2805786 1.281189 2.7284546q0.16259766 -1.4880981 0.47491455 -2.9175415l1.6799316 -7.557373l2.0905151 -0.2814331l-3.003662 13.190613q-0.48608398 2.1307373 -0.80218506 2.9458618q-0.41796875 1.1125488 -1.0812378 1.6906128q-0.6477661 0.57592773 -1.6543579 0.7114868q-0.60388184 0.08129883 -1.3804932 -0.06640625z" fill-rule="nonzero"></path></g></svg>

